<svg xmlns="http://www.w3.org/2000/svg" viewBox="0 0 130.52 163.86"><defs><style>.cls-1{fill:#9fd7de;fill-rule:evenodd;}</style></defs><g id="Слой_2" data-name="Слой 2"><g id="_1" data-name="1"><path class="cls-1" d="M11.38,118H45.79l-3.92-6.83H23.2L65.32,38.26H57.41L79.5,0H71.62L49.53,38.26H0l24.73,43,3.94-6.83L11.79,45.08H53.5L11.38,118Zm63.37,33h0a9.38,9.38,0,1,1,0-6.82h7.11a16.2,16.2,0,1,0,0,6.82Zm55.77-12.79h0v-6.83H107.33v32.41h23.19V157H114.15v-6h7.16v-6.82h-7.16v-6ZM18.2,163.86H11.38V131.45H18.2v32.41Zm108.39-52.65h0l3.93,6.83H72.31V38.26h58.21l-3.93,6.82H79.14V74.74h23.58v6.82H79.14v29.65Z"/></g></g></svg>