<svg width="258" height="258" viewBox="0 0 258 258" fill="none" xmlns="http://www.w3.org/2000/svg">
<path d="M243.225 130.425C243.6 130.435 243.911 130.559 244.16 130.797C244.417 131.035 244.539 131.378 244.527 131.824C244.515 132.271 244.375 132.606 244.105 132.83C243.844 133.062 243.526 133.173 243.151 133.163C242.784 133.153 242.476 133.025 242.228 132.779C241.987 132.541 241.872 132.199 241.885 131.753C241.897 131.306 242.029 130.971 242.283 130.746C242.544 130.522 242.858 130.415 243.225 130.425Z" fill="#B49359"/>
<path d="M233.398 155.007L231.552 154.662L233.718 143.067L235.564 143.412L233.398 155.007ZM247.098 157.176L233.617 143.608L233.878 142.209L235.571 142.525L249.008 156.072L248.744 157.484L247.098 157.176ZM248.924 156.519L247.066 156.172L249.113 145.212L250.971 145.559L248.924 156.519Z" fill="#B49359"/>
<path d="M229.258 168.026L227.472 167.446L230.319 158.674L232.105 159.253L229.258 168.026ZM246.742 164.494L230.175 159.117L230.888 156.921L247.455 162.298L246.742 164.494ZM237.293 169.351L235.506 168.771L237.977 161.159L239.763 161.739L237.293 169.351ZM244.076 172.709L242.278 172.126L245.088 163.467L246.886 164.05L244.076 172.709Z" fill="#B49359"/>
<path d="M241.488 178.633L225.497 171.728L226.412 169.608L242.403 176.513L241.488 178.633Z" fill="#B49359"/>
<path d="M223.842 186.963L222.725 188.971C221.821 188.331 221.114 187.577 220.602 186.708C220.091 185.839 219.839 184.873 219.847 183.81C219.861 182.75 220.208 181.61 220.887 180.391C221.383 179.499 222.002 178.78 222.744 178.234C223.482 177.696 224.303 177.336 225.207 177.154C226.118 176.977 227.085 176.985 228.108 177.181C229.134 177.387 230.181 177.786 231.247 178.379L232.763 179.223C233.829 179.816 234.716 180.493 235.426 181.252C236.138 182.023 236.656 182.845 236.982 183.72C237.304 184.602 237.422 185.512 237.338 186.451C237.254 187.39 236.95 188.33 236.426 189.27C235.786 190.42 235.029 191.272 234.155 191.826C233.281 192.38 232.339 192.664 231.328 192.676C230.32 192.699 229.285 192.484 228.223 192.03L229.34 190.023C230.105 190.321 230.816 190.479 231.472 190.497C232.135 190.52 232.742 190.364 233.292 190.032C233.842 189.699 234.336 189.139 234.775 188.351C235.151 187.675 235.353 187.008 235.383 186.349C235.408 185.696 235.28 185.064 235 184.452C234.717 183.847 234.292 183.273 233.727 182.73C233.162 182.188 232.475 181.691 231.667 181.242L230.13 180.387C229.384 179.972 228.641 179.659 227.901 179.447C227.157 179.243 226.448 179.164 225.775 179.209C225.102 179.254 224.484 179.445 223.923 179.78C223.369 180.12 222.904 180.628 222.528 181.304C222.051 182.161 221.807 182.92 221.796 183.58C221.784 184.24 221.961 184.84 222.326 185.381C222.688 185.929 223.193 186.456 223.842 186.963Z" fill="#B49359"/>
<path d="M211.514 197.993L210.007 196.871L215.514 189.472L217.021 190.594L211.514 197.993ZM229.208 200.247L215.235 189.847L216.614 187.995L230.586 198.394L229.208 200.247ZM218.701 201.821L217.194 200.7L221.972 194.28L223.479 195.401L218.701 201.821ZM224.051 207.175L222.535 206.047L227.97 198.744L229.486 199.872L224.051 207.175Z" fill="#B49359"/>
<path d="M210.345 209.2C210.608 209.467 210.747 209.772 210.762 210.117C210.782 210.466 210.632 210.798 210.314 211.112C209.996 211.425 209.663 211.569 209.313 211.544C208.964 211.53 208.657 211.39 208.394 211.123C208.137 210.862 208.003 210.556 207.995 210.206C207.986 209.868 208.14 209.542 208.459 209.229C208.777 208.915 209.105 208.765 209.443 208.779C209.787 208.798 210.088 208.939 210.345 209.2Z" fill="#B49359"/>
<path d="M203.103 227.085L192.45 213.305L194.276 211.893L204.929 225.673L203.103 227.085Z" fill="#B49359"/>
<path d="M183.525 225.865L181.573 227.077C181.094 226.079 180.843 225.076 180.818 224.068C180.793 223.06 181.042 222.093 181.566 221.168C182.093 220.248 182.95 219.421 184.136 218.685C185.003 218.146 185.893 217.819 186.807 217.702C187.713 217.59 188.606 217.674 189.484 217.955C190.367 218.242 191.208 218.72 192.007 219.388C192.804 220.066 193.524 220.924 194.168 221.96L195.083 223.434C195.726 224.471 196.174 225.493 196.424 226.502C196.672 227.521 196.726 228.492 196.586 229.415C196.438 230.342 196.1 231.195 195.57 231.975C195.04 232.754 194.318 233.428 193.403 233.996C192.285 234.69 191.21 235.067 190.176 235.126C189.143 235.186 188.182 234.976 187.292 234.495C186.4 234.026 185.6 233.335 184.893 232.423L186.844 231.211C187.368 231.843 187.912 232.327 188.477 232.661C189.046 233.003 189.651 233.162 190.294 233.139C190.936 233.115 191.64 232.866 192.406 232.39C193.063 231.982 193.565 231.497 193.91 230.935C194.249 230.377 194.445 229.763 194.498 229.092C194.544 228.425 194.452 227.717 194.221 226.968C193.991 226.219 193.632 225.452 193.144 224.666L192.216 223.172C191.766 222.447 191.269 221.812 190.724 221.268C190.173 220.728 189.592 220.314 188.982 220.027C188.372 219.739 187.74 219.606 187.086 219.627C186.437 219.654 185.784 219.872 185.126 220.28C184.293 220.798 183.711 221.342 183.38 221.913C183.05 222.485 182.913 223.096 182.969 223.746C183.019 224.4 183.204 225.107 183.525 225.865Z" fill="#B49359"/>
<path d="M167.419 229.489L166.649 227.776L175.061 223.994L175.832 225.707L167.419 229.489ZM181.778 240.072L174.636 224.185L176.742 223.239L183.884 239.125L181.778 240.072ZM171.834 236.332L171.063 234.619L178.363 231.337L179.133 233.05L171.834 236.332ZM173.901 243.613L173.126 241.889L181.429 238.156L182.204 239.88L173.901 243.613Z" fill="#B49359"/>
<path d="M149.785 238.203L147.549 238.728C147.414 237.629 147.496 236.598 147.794 235.635C148.093 234.672 148.638 233.836 149.43 233.126C150.223 232.423 151.3 231.913 152.658 231.594C153.652 231.361 154.6 231.335 155.503 231.517C156.398 231.7 157.217 232.065 157.96 232.611C158.704 233.166 159.348 233.887 159.893 234.775C160.431 235.673 160.839 236.716 161.118 237.904L161.514 239.592C161.793 240.78 161.89 241.892 161.805 242.928C161.715 243.973 161.455 244.91 161.027 245.74C160.591 246.571 159.998 247.272 159.247 247.841C158.496 248.41 157.596 248.818 156.548 249.064C155.267 249.365 154.127 249.378 153.129 249.104C152.131 248.831 151.287 248.324 150.598 247.585C149.902 246.855 149.365 245.945 148.986 244.854L151.222 244.329C151.517 245.096 151.878 245.728 152.306 246.225C152.736 246.731 153.259 247.075 153.876 247.258C154.492 247.441 155.239 247.43 156.116 247.224C156.869 247.047 157.5 246.748 158.007 246.326C158.506 245.905 158.888 245.386 159.152 244.767C159.409 244.149 159.548 243.449 159.569 242.666C159.59 241.883 159.495 241.041 159.283 240.14L158.882 238.428C158.687 237.597 158.418 236.837 158.076 236.147C157.727 235.459 157.308 234.882 156.822 234.414C156.335 233.947 155.779 233.619 155.153 233.43C154.529 233.248 153.84 233.246 153.087 233.423C152.132 233.647 151.407 233.977 150.911 234.412C150.415 234.848 150.09 235.383 149.936 236.017C149.774 236.653 149.724 237.382 149.785 238.203Z" fill="#B49359"/>
<path d="M145.828 250.913L140.085 251.424C138.782 251.54 137.664 251.439 136.731 251.122C135.79 250.805 135.051 250.278 134.513 249.542C133.968 248.813 133.645 247.885 133.545 246.757C133.474 245.963 133.572 245.222 133.839 244.533C134.099 243.854 134.51 243.257 135.073 242.742C135.629 242.236 136.314 241.835 137.128 241.539L137.749 241.231L143.147 240.751L143.337 242.62L139.262 242.982C138.436 243.056 137.761 243.26 137.239 243.594C136.717 243.937 136.339 244.367 136.104 244.884C135.87 245.402 135.779 245.958 135.832 246.554C135.892 247.221 136.075 247.793 136.381 248.271C136.688 248.748 137.135 249.096 137.723 249.316C138.304 249.545 139.036 249.62 139.917 249.541L143.361 249.235L141.986 233.768L144.285 233.564L145.828 250.913ZM134.145 234.466L139.063 241.955L136.668 242.18L131.703 234.827L131.69 234.684L134.145 234.466Z" fill="#B49359"/>
<path d="M121.782 250.165L128.397 234.624L130.75 234.752L123.18 251.786L121.663 251.704L121.782 250.165ZM117.814 234.052L122.726 250.216L122.679 251.759L121.161 251.677L115.448 233.924L117.814 234.052ZM117.764 240.507L117.866 238.619L127.637 239.148L127.535 241.035L117.764 240.507Z" fill="#B49359"/>
<path d="M108.758 250.283L111.956 233.161L114.226 233.585L111.028 250.707L108.758 250.283ZM103.024 241.241L103.371 239.383L111.038 240.815L110.691 242.673L103.024 241.241ZM100.421 248.726L100.768 246.868L109.599 248.518L109.252 250.376L100.421 248.726Z" fill="#B49359"/>
<path d="M90.0681 245.627L95.4448 229.059L97.6068 229.761L92.23 246.328L90.0681 245.627ZM84.7429 243.898L85.3263 242.1L98.1273 246.255L97.5438 248.053L84.7429 243.898Z" fill="#B49359"/>
<path d="M70.6691 223.617L68.6662 222.493C69.3092 221.591 70.066 220.887 70.9366 220.378C71.8072 219.87 72.7742 219.622 73.8377 219.634C74.8974 219.652 76.0357 220.003 77.2527 220.686C78.1429 221.186 78.8595 221.807 79.4023 222.551C79.9382 223.291 80.2952 224.113 80.4733 225.018C80.6475 225.93 80.6351 226.897 80.4362 227.919C80.2264 228.945 79.8229 229.989 79.2257 231.054L78.3766 232.566C77.7794 233.63 77.0996 234.515 76.3374 235.222C75.5643 235.931 74.7398 236.447 73.8638 236.769C72.9809 237.087 72.0702 237.203 71.1317 237.115C70.1933 237.027 69.2546 236.72 68.3157 236.193C67.1682 235.549 66.319 234.788 65.7682 233.912C65.2174 233.036 64.9377 232.093 64.9289 231.082C64.9093 230.074 65.1284 229.04 65.5862 227.98L67.5891 229.104C67.2883 229.868 67.1276 230.578 67.1069 231.234C67.0823 231.897 67.2354 232.504 67.566 233.056C67.8967 233.607 68.455 234.103 69.2409 234.544C69.9155 234.923 70.5823 235.128 71.2414 235.16C71.8935 235.187 72.5261 235.062 73.1393 234.785C73.7455 234.503 74.321 234.081 74.8657 233.518C75.4104 232.954 75.9092 232.27 76.362 231.463L77.2227 229.929C77.6404 229.185 77.9562 228.443 78.1702 227.704C78.3772 226.96 78.4593 226.252 78.4165 225.578C78.3738 224.905 78.1855 224.287 77.8518 223.725C77.5142 223.17 77.008 222.703 76.3334 222.324C75.478 221.844 74.7204 221.597 74.0604 221.583C73.4005 221.569 72.7994 221.744 72.2571 222.107C71.7079 222.467 71.1785 222.97 70.6691 223.617Z" fill="#B49359"/>
<path d="M53.5066 215.73L54.1765 214.857C54.9727 213.819 55.816 212.989 56.7066 212.365C57.5971 211.741 58.5069 211.329 59.4359 211.127C60.3649 210.925 61.2875 210.934 62.2039 211.155C63.114 211.37 63.9898 211.801 64.8314 212.447C65.6476 213.073 66.2809 213.8 66.7313 214.628C67.1753 215.451 67.4263 216.343 67.4844 217.302C67.5362 218.256 67.3826 219.249 67.0235 220.281C66.6645 221.312 66.0869 222.346 65.2908 223.384L64.6208 224.257C63.8247 225.295 62.9806 226.12 62.0886 226.732C61.1854 227.346 60.2661 227.752 59.3308 227.949C58.3906 228.152 57.4655 228.146 56.5555 227.93C55.6391 227.71 54.7727 227.286 53.9565 226.66C53.1149 226.014 52.4722 225.28 52.0281 224.457C51.5778 223.629 51.3323 222.737 51.2917 221.781C51.24 220.826 51.3999 219.838 51.7716 218.817C52.1321 217.797 52.7104 216.768 53.5066 215.73ZM55.9894 216.248L55.3049 217.14C54.6737 217.962 54.2009 218.756 53.8863 219.52C53.5653 220.278 53.4011 220.997 53.3937 221.675C53.3863 222.353 53.5318 222.982 53.8301 223.563C54.1221 224.138 54.5623 224.652 55.1507 225.104C55.7202 225.541 56.3209 225.825 56.9527 225.958C57.5782 226.086 58.2205 226.062 58.8796 225.884C59.5325 225.701 60.1902 225.361 60.8528 224.864C61.5155 224.368 62.1623 223.708 62.7934 222.885L63.4779 221.993C64.1139 221.164 64.5885 220.362 64.9016 219.587C65.2099 218.819 65.367 218.09 65.373 217.401C65.3677 216.713 65.2223 216.084 64.9366 215.513C64.6446 214.937 64.2139 214.431 63.6444 213.994C63.0496 213.537 62.4363 213.243 61.8045 213.11C61.1727 212.977 60.5335 213.004 59.887 213.192C59.2294 213.381 58.5755 213.729 57.9256 214.235C57.2707 214.748 56.6253 215.419 55.9894 216.248Z" fill="#B49359"/>
<path d="M44.1539 218.304L42.6365 216.66L49.2001 202.836L34.9036 208.283L33.3782 206.63L50.9805 200.02L52.1652 201.303L44.1539 218.304ZM44.6489 218.84L43.31 217.39L50.8967 209.947L55.8896 205.338L57.4476 207.026L44.6489 218.84ZM34.2302 207.553L32.8913 206.103L45.69 194.289L47.2479 195.976L42.255 200.585L34.2302 207.553Z" fill="#B49359"/>
<path d="M34.5782 189.877L37.1194 193.776L35.546 194.801L33.0048 190.903C32.5127 190.148 31.9939 189.615 31.4486 189.304C30.9032 188.993 30.347 188.87 29.7801 188.935C29.2088 188.993 28.6492 189.201 28.1013 189.558C27.6002 189.885 27.2011 190.302 26.9038 190.81C26.6022 191.311 26.4702 191.883 26.5078 192.525C26.5388 193.171 26.8003 193.871 27.2924 194.626L29.5396 198.074L42.5479 189.595L43.8087 191.529L29.2169 201.04L25.709 195.659C24.9904 194.556 24.5733 193.5 24.4576 192.49C24.342 191.48 24.4931 190.558 24.9109 189.724C25.3221 188.895 25.9586 188.199 26.8205 187.637C27.7559 187.027 28.6827 186.704 29.6011 186.667C30.5195 186.63 31.4006 186.879 32.2445 187.414C33.0818 187.954 33.8597 188.775 34.5782 189.877Z" fill="#B49359"/>
<path d="M18.787 179.91L35.6097 178.409L36.6079 180.544L18.0174 181.908L17.3739 180.531L18.787 179.91ZM31.1199 168.808L19.1873 180.766L17.8046 181.452L17.161 180.076L30.1166 166.662L31.1199 168.808ZM25.4057 171.81L27.1179 171.009L31.263 179.874L29.5508 180.674L25.4057 171.81Z" fill="#B49359"/>
<path d="M9.28227 157.717L25.986 152.781L26.6438 155.006L16.2457 167.223L29.1291 163.415L29.7835 165.63L13.0798 170.566L12.4254 168.352L22.8477 156.091L9.92988 159.909L9.28227 157.717Z" fill="#B49359"/>
<path d="M7.99524 151.21L16.0092 145.492L6.709 142.246L6.33689 139.653L17.9894 144.048L24.4312 143.124L24.7592 145.409L18.3173 146.333L8.37074 153.827L7.99524 151.21Z" fill="#B49359"/>
<path d="M14.9831 136.099C14.6087 136.116 14.2886 136.015 14.023 135.796C13.7494 135.577 13.6023 135.244 13.5816 134.798C13.5609 134.352 13.6767 134.007 13.9289 133.764C14.1727 133.513 14.4819 133.379 14.8563 133.362C15.2228 133.345 15.539 133.45 15.805 133.677C16.0627 133.897 16.2019 134.23 16.2225 134.676C16.2432 135.122 16.1354 135.466 15.8992 135.709C15.6549 135.952 15.3496 136.082 14.9831 136.099Z" fill="#B49359"/>
<path d="M22.9862 110.745L24.8526 110.955L23.5368 122.677L21.6704 122.467L22.9862 110.745ZM9.16503 109.579L23.5982 122.13L23.4394 123.544L21.7275 123.352L7.34054 110.819L7.50068 109.392L9.16503 109.579ZM7.39125 110.367L9.26959 110.578L8.02584 121.658L6.1475 121.447L7.39125 110.367Z" fill="#B49359"/>
<path d="M26.1975 97.2906L28.021 97.7404L25.812 106.695L23.9885 106.246L26.1975 97.2906ZM9.01271 102.071L25.9238 106.242L25.3708 108.484L8.45975 104.312L9.01271 102.071ZM18.0885 96.5471L19.9121 96.9969L17.9953 104.767L16.1718 104.317L18.0885 96.5471ZM11.0813 93.685L12.9164 94.1377L10.7361 102.976L8.90097 102.524L11.0813 93.685Z" fill="#B49359"/>
<path d="M13.0899 87.9854L29.553 93.6734L28.799 95.8556L12.3359 90.1677L13.0899 87.9854Z" fill="#B49359"/>
<path d="M30.0334 78.4026L30.9986 76.3184C31.9471 76.8894 32.7084 77.5892 33.2828 78.4177C33.8571 79.2461 34.1798 80.191 34.2508 81.2522C34.3147 82.31 34.0533 83.4722 33.4668 84.7386C33.0379 85.665 32.4737 86.4276 31.7745 87.0266C31.0785 87.6184 30.2865 88.0382 29.3983 88.2861C28.5028 88.5306 27.5377 88.5934 26.503 88.4745C25.4643 88.3451 24.3913 88.024 23.2841 87.5112L21.71 86.7823C20.6028 86.2695 19.6675 85.6606 18.9042 84.9556C18.137 84.2399 17.5587 83.458 17.1693 82.6097C16.7833 81.7542 16.5975 80.8552 16.6121 79.9128C16.6267 78.9703 16.8602 78.0106 17.3126 77.0336C17.8656 75.8395 18.5575 74.9338 19.3882 74.3166C20.219 73.6994 21.1379 73.3472 22.1451 73.2599C23.1485 73.162 24.1963 73.3001 25.2887 73.6742L24.3235 75.7584C23.5384 75.5179 22.818 75.4128 22.1624 75.4431C21.4995 75.4701 20.906 75.6699 20.382 76.0424C19.8579 76.415 19.4065 77.0101 19.0278 77.8279C18.7027 78.5299 18.55 79.2106 18.5698 79.8701C18.5929 80.5224 18.7668 81.1435 19.0913 81.7332C19.4192 82.3157 19.885 82.8566 20.4887 83.3559C21.0924 83.8552 21.814 84.2992 22.6535 84.688L24.2493 85.427C25.0236 85.7856 25.7878 86.0428 26.5418 86.1986C27.2991 86.3472 28.0118 86.374 28.6798 86.2791C29.3478 86.1841 29.9491 85.9484 30.4838 85.572C31.0112 85.1922 31.4375 84.6514 31.7625 83.9494C32.1748 83.0592 32.3621 82.2847 32.3245 81.6257C32.2869 80.9667 32.066 80.381 31.6617 79.8686C31.2607 79.3489 30.718 78.8603 30.0334 78.4026Z" fill="#B49359"/>
<path d="M41.5439 66.3972L43.1285 67.4055L38.1773 75.1872L36.5927 74.179L41.5439 66.3972ZM23.7322 65.4433L38.4277 74.7936L37.1883 76.7416L22.4928 67.3913L23.7322 65.4433ZM34.0963 63.1048L35.6809 64.113L31.3846 70.8653L29.8 69.8571L34.0963 63.1048ZM28.3688 58.1561L29.9635 59.1708L25.0765 66.8516L23.4818 65.8369L28.3688 58.1561Z" fill="#B49359"/>
<path d="M41.8841 55.1002C41.6023 54.853 41.4417 54.5584 41.4023 54.2162C41.3569 53.8688 41.4815 53.5272 41.776 53.1914C42.0705 52.8556 42.3929 52.6876 42.7433 52.6872C43.0929 52.6756 43.4086 52.7934 43.6904 53.0406C43.9662 53.2825 44.1212 53.5775 44.1553 53.9256C44.1887 54.2625 44.0581 54.5989 43.7636 54.9346C43.4691 55.2704 43.1527 55.4437 42.8143 55.4546C42.47 55.4602 42.1599 55.3421 41.8841 55.1002Z" fill="#B49359"/>
<path d="M47.4932 36.9869L59.1202 49.956L57.4011 51.4973L45.7741 38.5282L47.4932 36.9869Z" fill="#B49359"/>
<path d="M67.2747 36.581L69.1322 35.2299C69.6828 36.1903 70.0075 37.1721 70.1061 38.1753C70.2047 39.1786 70.0268 40.161 69.5725 41.1227C69.1135 42.0779 68.3196 42.966 67.191 43.787C66.3655 44.3875 65.5015 44.7793 64.5991 44.9623C63.7032 45.1407 62.8069 45.122 61.9104 44.9063C61.0091 44.6841 60.1354 44.2694 59.2893 43.662C58.4449 43.0435 57.6638 42.2408 56.946 41.2541L55.9256 39.8513C55.2078 38.8646 54.687 37.8775 54.3633 36.8901C54.0413 35.8916 53.9166 34.927 53.9892 33.9965C54.0682 33.0612 54.3435 32.1855 54.8148 31.3693C55.2862 30.553 55.9572 29.8282 56.8278 29.1949C57.892 28.4208 58.9371 27.9663 59.9632 27.8313C60.9893 27.6963 61.9636 27.8358 62.8859 28.2497C63.8101 28.6524 64.6583 29.2829 65.4306 30.1413L63.5732 31.4924C63.0044 30.9003 62.4262 30.4579 61.8386 30.1654C61.2464 29.8664 60.6307 29.7521 59.9916 29.8225C59.3524 29.893 58.6685 30.1932 57.9397 30.7234C57.3141 31.1784 56.8495 31.6989 56.5458 32.2847C56.2486 32.8658 56.0982 33.4929 56.0948 34.166C56.0978 34.8345 56.2415 35.5337 56.526 36.2637C56.8104 36.9937 57.2247 37.7327 57.769 38.4808L58.8034 39.9029C59.3054 40.593 59.8478 41.1896 60.4307 41.6926C61.02 42.191 61.6296 42.5612 62.2594 42.8033C62.8891 43.0454 63.5291 43.1321 64.1794 43.0635C64.825 42.9883 65.4605 42.7232 66.0861 42.2682C66.8794 41.6911 67.42 41.1056 67.7078 40.5116C67.9957 39.9176 68.0877 39.2984 67.9838 38.654C67.8864 38.0049 67.6501 37.3139 67.2747 36.581Z" fill="#B49359"/>
<path d="M83.1475 31.6908L84.0425 33.342L75.9337 37.7372L75.0387 36.086L83.1475 31.6908ZM68.0436 22.2018L76.3439 37.5149L74.3141 38.6152L66.0138 23.3021L68.0436 22.2018ZM78.2382 25.1941L79.1332 26.8453L72.0971 30.6591L71.2021 29.0079L78.2382 25.1941ZM75.6371 18.0859L76.5378 19.7476L68.5342 24.0859L67.6335 22.4241L75.6371 18.0859Z" fill="#B49359"/>
<path d="M100.089 21.6701L102.281 20.9859C102.495 22.0721 102.488 23.1062 102.259 24.0881C102.031 25.07 101.548 25.9435 100.809 26.7087C100.068 27.4663 99.0311 28.053 97.6988 28.4688C96.7243 28.7729 95.7804 28.8669 94.867 28.751C93.9611 28.6326 93.1182 28.3276 92.3382 27.8358C91.5557 27.3364 90.8611 26.6634 90.2544 25.8168C89.6529 24.9602 89.1704 23.9495 88.8069 22.7847L88.2901 21.1288C87.9266 19.964 87.7498 18.862 87.7598 17.823C87.7749 16.7739 87.9661 15.8203 88.3332 14.9622C88.708 14.1017 89.2495 13.3604 89.9577 12.7384C90.6658 12.1164 91.5338 11.645 92.5616 11.3243C93.8178 10.9322 94.9535 10.8368 95.9687 11.038C96.9839 11.2392 97.8619 11.6836 98.6029 12.3714C99.3491 13.0492 99.9504 13.9184 100.407 14.9791L98.2141 15.6633C97.8652 14.92 97.4594 14.3156 96.9966 13.8502C96.5315 13.3771 95.985 13.0714 95.357 12.9332C94.7291 12.795 93.985 12.8601 93.1247 13.1286C92.3862 13.359 91.7792 13.703 91.3037 14.1605C90.8359 14.6156 90.4924 15.1614 90.2733 15.7979C90.0618 16.432 89.9738 17.1404 90.0091 17.9231C90.0445 18.7057 90.2 19.5386 90.4756 20.4217L90.9995 22.1004C91.2537 22.915 91.5762 23.654 91.967 24.3174C92.3654 24.9784 92.8241 25.5245 93.343 25.9557C93.8619 26.387 94.4403 26.6743 95.0782 26.8178C95.7138 26.9536 96.4008 26.9063 97.1393 26.6759C98.0757 26.3836 98.7755 26.0024 99.2386 25.532C99.7017 25.0617 99.9874 24.5047 100.096 23.861C100.211 23.2149 100.209 22.4846 100.089 21.6701Z" fill="#B49359"/>
<path d="M102.994 8.6816L108.685 7.75336C109.976 7.54281 111.098 7.56177 112.052 7.81026C113.013 8.05746 113.789 8.52888 114.379 9.22451C114.976 9.91099 115.366 10.8131 115.548 11.9308C115.676 12.7179 115.632 13.4645 115.416 14.1704C115.207 14.8672 114.84 15.4927 114.316 16.0468C113.799 16.5917 113.145 17.0418 112.355 17.397L111.758 17.7489L106.409 18.6213L106.083 16.7715L110.121 16.1129C110.94 15.9794 111.597 15.7266 112.094 15.3547C112.59 14.9748 112.936 14.5185 113.132 13.9855C113.327 13.4525 113.377 12.8909 113.281 12.3006C113.173 11.6394 112.949 11.082 112.608 10.6285C112.268 10.175 111.796 9.85998 111.194 9.68352C110.598 9.49789 109.863 9.47634 108.989 9.61885L105.577 10.1754L108.077 25.5007L105.798 25.8724L102.994 8.6816ZM115.846 24.2335L110.395 17.1227L112.766 16.7238L118.255 23.6951L118.278 23.8368L115.846 24.2335Z" fill="#B49359"/>
<path d="M126.305 7.65392L120.908 23.6579L118.552 23.7125L124.787 6.14548L126.305 6.11029L126.305 7.65392ZM131.505 23.4125L125.36 7.67581L125.289 6.13384L126.808 6.09866L133.873 23.3577L131.505 23.4125ZM131.056 16.9732L131.1 18.8628L121.317 19.0894L121.273 17.1998L131.056 16.9732Z" fill="#B49359"/>
<path d="M140.027 6.53721L138.084 23.8465L135.789 23.5889L137.732 6.27965L140.027 6.53721ZM146.404 15.138L146.193 17.0164L138.442 16.1463L138.653 14.2679L146.404 15.138ZM148.455 7.48337L148.245 9.3617L139.316 8.3595L139.527 6.48116L148.455 7.48337Z" fill="#B49359"/>
<path d="M158.7 9.6942L154.593 26.621L152.384 26.085L156.491 9.15823L158.7 9.6942ZM164.141 11.0144L163.695 12.8512L150.617 9.6777L151.062 7.84087L164.141 11.0144Z" fill="#B49359"/>
<path d="M179.873 30.1796L181.954 31.1525C181.379 32.0988 180.677 32.8576 179.846 33.4289C179.016 34.0001 178.07 34.3193 177.008 34.3864C175.95 34.4463 174.789 34.1806 173.525 33.5894C172.6 33.157 171.839 32.59 171.243 31.8885C170.654 31.1904 170.237 30.3968 169.992 29.5077C169.751 28.6114 169.692 27.646 169.815 26.6117C169.948 25.5735 170.273 24.5017 170.79 23.3964L171.525 21.8251C172.042 20.7198 172.654 19.7868 173.362 19.0261C174.08 18.2615 174.864 17.6861 175.714 17.2999C176.571 16.9171 177.471 16.7347 178.413 16.7528C179.356 16.7708 180.314 17.0079 181.29 17.464C182.482 18.0214 183.385 18.7166 183.999 19.5497C184.613 20.3827 184.962 21.303 185.045 22.3105C185.14 23.3142 184.998 24.3615 184.619 25.4525L182.539 24.4795C182.782 23.6954 182.89 22.9754 182.862 22.3196C182.838 21.6566 182.64 21.0624 182.269 20.537C181.899 20.0115 181.305 19.5579 180.489 19.1762C179.788 18.8485 179.108 18.6933 178.449 18.7106C177.796 18.7313 177.174 18.9028 176.584 19.2252C176 19.5509 175.457 20.0147 174.956 20.6165C174.454 21.2184 174.007 21.9383 173.616 22.7764L172.871 24.3694C172.509 25.1424 172.249 25.9056 172.09 26.659C171.939 27.4158 171.91 28.1284 172.002 28.7967C172.095 29.465 172.328 30.0672 172.702 30.6033C173.08 31.1321 173.619 31.5604 174.32 31.8881C175.209 32.3036 175.983 32.4938 176.642 32.4586C177.301 32.4235 177.888 32.2048 178.401 31.8024C178.923 31.4034 179.413 30.8624 179.873 30.1796Z" fill="#B49359"/>
<path d="M197.462 36.653L196.858 37.5728C196.14 38.6659 195.359 39.5559 194.517 40.2428C193.674 40.9297 192.797 41.4079 191.885 41.6772C190.974 41.9465 190.053 42.0046 189.123 41.8515C188.199 41.7029 187.294 41.3373 186.408 40.7548C185.548 40.1899 184.863 39.5109 184.354 38.718C183.851 37.9295 183.535 37.0589 183.407 36.1064C183.286 35.1583 183.367 34.1568 183.649 33.102C183.932 32.0473 184.432 30.9733 185.151 29.8802L185.755 28.9604C186.473 27.8673 187.255 26.9829 188.1 26.307C188.956 25.6288 189.843 25.1573 190.761 24.8924C191.684 24.6208 192.607 24.5593 193.531 24.708C194.461 24.861 195.356 25.22 196.215 25.785C197.102 26.3675 197.797 27.053 198.3 27.8415C198.809 28.6344 199.119 29.5061 199.229 30.4565C199.351 31.4047 199.263 32.4017 198.967 33.4478C198.682 34.4915 198.181 35.5599 197.462 36.653ZM194.949 36.3181L195.566 35.3783C196.135 34.5118 196.549 33.6862 196.807 32.9014C197.072 32.1211 197.183 31.3926 197.141 30.716C197.099 30.0394 196.908 29.4224 196.568 28.8651C196.234 28.3121 195.758 27.8319 195.138 27.4246C194.538 27.0305 193.918 26.7902 193.279 26.7038C192.645 26.6217 192.007 26.6935 191.362 26.919C190.724 27.1488 190.093 27.5357 189.469 28.0796C188.844 28.6235 188.247 29.3287 187.678 30.1952L187.06 31.135C186.487 32.0081 186.072 32.8426 185.816 33.6384C185.565 34.4275 185.461 35.1659 185.506 35.8535C185.561 36.5389 185.752 37.1559 186.079 37.7045C186.412 38.2575 186.879 38.731 187.479 39.1252C188.105 39.5369 188.738 39.7859 189.378 39.8723C190.018 39.9587 190.653 39.8848 191.285 39.6506C191.927 39.414 192.553 39.0194 193.165 38.4668C193.78 37.9075 194.375 37.1912 194.949 36.3181Z" fill="#B49359"/>
<path d="M206.85 33.5014L208.483 35.0307L202.941 49.2954L216.804 42.8243L218.445 44.3617L201.369 52.2329L200.095 51.0389L206.85 33.5014ZM206.318 33.0026L207.758 34.3519L200.732 42.326L196.087 47.2852L194.411 45.715L206.318 33.0026ZM217.528 43.5031L218.969 44.8524L207.062 57.5649L205.386 55.9947L210.031 51.0355L217.528 43.5031Z" fill="#B49359"/>
<path d="M218.666 61.3261L215.847 57.6237L217.341 56.4859L220.161 60.1882C220.707 60.9052 221.263 61.3989 221.83 61.6691C222.396 61.9393 222.96 62.0213 223.521 61.9152C224.086 61.8153 224.629 61.5673 225.149 61.1711C225.625 60.8088 225.993 60.3635 226.252 59.8352C226.516 59.3133 226.606 58.7336 226.522 58.0962C226.444 57.4539 226.132 56.7743 225.586 56.0573L223.093 52.7832L210.739 62.1902L209.34 60.3533L223.198 49.8012L227.09 54.9122C227.887 55.9591 228.38 56.982 228.569 57.9807C228.758 58.9795 228.675 59.91 228.319 60.7724C227.97 61.6299 227.386 62.3703 226.567 62.9936C225.679 63.67 224.778 64.0602 223.865 64.1641C222.951 64.2681 222.055 64.084 221.174 63.6119C220.299 63.135 219.464 62.373 218.666 61.3261Z" fill="#B49359"/>
<path d="M235.097 70.0053L218.432 72.7472L217.278 70.6921L235.717 67.9564L236.461 69.2812L235.097 70.0053ZM223.62 81.9899L234.635 69.1811L235.963 68.3945L236.707 69.7194L224.779 84.0554L223.62 81.9899ZM229.096 78.573L227.448 79.4982L222.658 70.9649L224.306 70.0397L229.096 78.573Z" fill="#B49359"/>
<path d="M246.197 91.2975L229.912 97.4777L229.089 95.3079L238.538 82.3429L225.977 87.1096L225.158 84.951L241.443 78.7708L242.262 80.9294L232.792 93.9407L245.386 89.1612L246.197 91.2975Z" fill="#B49359"/>
<path d="M248.079 98.0483L240.502 104.333L250.013 106.895L250.572 109.455L238.632 105.918L232.274 107.307L231.781 105.052L238.139 103.662L247.515 95.4654L248.079 98.0483Z" fill="#B49359"/>
</svg>
