<svg width="245" height="245" viewBox="0 0 245 245" fill="none" xmlns="http://www.w3.org/2000/svg">
<path d="M217.077 125.785C217.81 125.833 218.411 126.099 218.88 126.584C219.365 127.07 219.579 127.75 219.522 128.623C219.464 129.496 219.164 130.142 218.619 130.56C218.09 130.995 217.458 131.188 216.726 131.14C216.008 131.093 215.416 130.819 214.948 130.319C214.494 129.835 214.296 129.157 214.353 128.283C214.41 127.41 214.696 126.764 215.209 126.343C215.737 125.924 216.36 125.738 217.077 125.785Z" fill="#A0D5DE"/>
<path d="M191.015 167.785L187.676 166.239L197.388 145.269L200.727 146.815L191.015 167.785ZM215.98 178.519L196.934 146.247L198.107 143.716L201.169 145.134L220.139 177.346L218.957 179.898L215.98 178.519ZM219.765 178.154L216.405 176.598L225.584 156.777L228.944 158.333L219.765 178.154Z" fill="#A0D5DE"/>
<path d="M174.812 185.697L172.081 183.23L184.193 169.82L186.924 172.286L174.812 185.697ZM208.906 193.37L183.58 170.498L186.612 167.141L211.938 190.013L208.906 193.37ZM188.121 194.494L185.39 192.028L195.899 180.391L198.63 182.858L188.121 194.494ZM197.564 205.928L194.816 203.446L206.77 190.209L209.519 192.691L197.564 205.928Z" fill="#A0D5DE"/>
<path d="M184.868 215.108L165.301 187.149L169.007 184.556L188.574 212.514L184.868 215.108Z" fill="#A0D5DE"/>
<path d="M145.825 208.175L141.618 209.772C141.072 207.673 140.965 205.649 141.295 203.702C141.626 201.755 142.468 199.99 143.823 198.406C145.183 196.837 147.141 195.568 149.697 194.597C151.567 193.888 153.402 193.593 155.202 193.712C156.987 193.836 158.672 194.333 160.255 195.203C161.844 196.087 163.282 197.322 164.569 198.906C165.846 200.51 166.909 202.43 167.757 204.665L168.963 207.842C169.811 210.077 170.287 212.211 170.39 214.245C170.484 216.298 170.222 218.185 169.606 219.907C168.974 221.634 168.003 223.147 166.691 224.447C165.38 225.747 163.738 226.772 161.766 227.52C159.355 228.435 157.145 228.755 155.136 228.482C153.127 228.208 151.358 227.442 149.827 226.185C148.288 224.947 147.01 223.318 145.992 221.298L150.2 219.701C150.97 221.113 151.835 222.248 152.794 223.103C153.76 223.974 154.865 224.507 156.109 224.703C157.353 224.899 158.801 224.684 160.452 224.058C161.869 223.52 163.015 222.776 163.891 221.825C164.752 220.88 165.36 219.772 165.713 218.501C166.052 217.236 166.14 215.841 165.979 214.314C165.818 212.788 165.415 211.177 164.772 209.483L163.55 206.262C162.956 204.698 162.239 203.291 161.396 202.04C160.539 200.794 159.578 199.781 158.512 198.998C157.446 198.216 156.281 197.722 155.017 197.517C153.758 197.326 152.42 197.5 151.003 198.038C149.206 198.72 147.883 199.548 147.032 200.522C146.182 201.497 145.689 202.62 145.553 203.891C145.403 205.168 145.494 206.596 145.825 208.175Z" fill="#A0D5DE"/>
<path d="M114.236 204.105L114.08 200.429L132.134 199.662L132.29 203.338L114.236 204.105ZM132.669 233.795L131.221 199.701L135.74 199.509L137.188 233.603L132.669 233.795ZM117.294 219.763L117.138 216.087L132.803 215.421L132.959 219.098L117.294 219.763ZM115.762 234.513L115.605 230.813L133.425 230.056L133.582 233.756L115.762 234.513Z" fill="#A0D5DE"/>
<path d="M95.5815 213.243C95.3521 213.94 94.9442 214.456 94.3576 214.789C93.7661 215.138 93.0547 215.175 92.2235 214.902C91.3922 214.629 90.8419 214.177 90.5725 213.545C90.2833 212.924 90.2534 212.264 90.4827 211.567C90.7071 210.884 91.1201 210.378 91.7215 210.05C92.3033 209.731 93.0097 209.708 93.841 209.981C94.6722 210.255 95.2274 210.692 95.5067 211.294C95.781 211.91 95.8059 212.56 95.5815 213.243Z" fill="#A0D5DE"/>
<path d="M57.6418 213.378L77.0032 185.277L80.7281 187.844L61.3667 215.945L57.6418 213.378Z" fill="#A0D5DE"/>
<path d="M50.4974 174.445L47.518 171.072C49.2891 169.82 51.1439 169.005 53.0823 168.627C55.0208 168.249 56.9699 168.414 58.9297 169.122C60.8778 169.84 62.7571 171.224 64.5675 173.273C65.8917 174.772 66.8159 176.384 67.3401 178.11C67.854 179.824 67.9836 181.576 67.7291 183.365C67.4628 185.164 66.8158 186.944 65.7879 188.707C64.738 190.469 63.3173 192.141 61.5257 193.724L58.9789 195.974C57.1873 197.557 55.3586 198.756 53.4928 199.57C51.605 200.383 49.7468 200.805 47.9184 200.836C46.0797 200.855 44.3206 200.48 42.6413 199.712C40.9619 198.944 39.4239 197.77 38.0273 196.189C36.3203 194.257 35.2402 192.303 34.7868 190.326C34.3334 188.35 34.4249 186.424 35.0612 184.548C35.6755 182.671 36.7481 180.9 38.2791 179.235L41.2585 182.607C40.209 183.826 39.4534 185.036 38.9917 186.236C38.5183 187.447 38.4095 188.669 38.6653 189.902C38.9211 191.136 39.6335 192.414 40.8025 193.737C41.806 194.873 42.9071 195.683 44.106 196.166C45.2944 196.639 46.5454 196.816 47.8589 196.698C49.1621 196.568 50.4992 196.158 51.8703 195.468C53.2413 194.778 54.606 193.833 55.9643 192.633L58.5463 190.352C59.7992 189.245 60.8622 188.076 61.7353 186.846C62.5981 185.604 63.2072 184.347 63.5627 183.074C63.9182 181.8 63.9688 180.536 63.7144 179.281C63.4482 178.035 62.8134 176.845 61.8099 175.709C60.5374 174.269 59.2953 173.323 58.0834 172.872C56.8715 172.42 55.6468 172.356 54.4092 172.678C53.1613 172.988 51.8574 173.577 50.4974 174.445Z" fill="#A0D5DE"/>
<path d="M43.1896 143.554L46.5732 142.108L53.6746 158.725L50.291 160.171L43.1896 143.554ZM21.936 171.295L53.3154 157.884L55.0931 162.044L23.7136 175.454L21.936 171.295ZM29.6247 151.951L33.0083 150.505L39.1703 164.923L35.7866 166.37L29.6247 151.951ZM15.2859 155.735L18.6911 154.279L25.7004 170.68L22.2952 172.135L15.2859 155.735Z" fill="#A0D5DE"/>
<path d="M34.847 108.42L35.1246 103.929C37.2623 104.296 39.1502 105.031 40.7884 106.134C42.4266 107.237 43.6884 108.732 44.5737 110.618C45.4434 112.504 45.7939 114.811 45.6252 117.54C45.5018 119.536 45.0152 121.33 44.1655 122.921C43.3166 124.497 42.1699 125.827 40.7252 126.912C39.2649 127.996 37.5481 128.798 35.5748 129.317C33.5868 129.821 31.3998 129.999 29.0137 129.851L25.6218 129.641C23.2357 129.494 21.0951 129.049 19.1998 128.305C17.2899 127.545 15.6776 126.53 14.3629 125.259C13.0491 123.972 12.07 122.464 11.4256 120.733C10.7811 119.003 10.5239 117.085 10.6541 114.979C10.8131 112.406 11.431 110.26 12.5078 108.542C13.5846 106.824 15.0111 105.527 16.7873 104.65C18.5489 103.757 20.5598 103.263 22.82 103.168L22.5423 107.66C20.9381 107.78 19.5485 108.101 18.3734 108.623C17.1827 109.144 16.2417 109.931 15.5505 110.985C14.8592 112.038 14.4591 113.445 14.3501 115.208C14.2566 116.72 14.4627 118.072 14.9684 119.261C15.4751 120.435 16.2346 121.445 17.2468 122.29C18.2601 123.12 19.4954 123.776 20.9529 124.257C22.4103 124.739 24.0436 125.035 25.8526 125.147L29.2914 125.36C30.9601 125.463 32.538 125.388 34.0251 125.136C35.5133 124.868 36.8331 124.409 37.9847 123.76C39.1363 123.111 40.0661 122.253 40.7739 121.185C41.4662 120.116 41.859 118.826 41.9525 117.313C42.0711 115.395 41.8615 113.848 41.3236 112.672C40.7858 111.496 39.9654 110.584 38.8627 109.936C37.7608 109.273 36.4223 108.768 34.847 108.42Z" fill="#A0D5DE"/>
<path d="M15.0698 90.1057L19.3926 79.6687C20.3732 77.3012 21.5622 75.4513 22.9596 74.119C24.363 72.7723 25.9484 71.9661 27.7159 71.7003C29.4749 71.4141 31.3794 71.6955 33.4292 72.5446C34.8728 73.1425 36.0711 73.9855 37.0242 75.0736C37.9687 76.1413 38.6324 77.3971 39.0153 78.841C39.3897 80.2645 39.4651 81.8179 39.2415 83.501L39.2119 84.8587L35.1492 94.6678L31.7316 93.303L34.7989 85.8975C35.4207 84.3961 35.678 83.0398 35.5709 81.8285C35.4493 80.6112 35.0457 79.5646 34.3599 78.6886C33.6742 77.8127 32.79 77.1505 31.7073 76.7021C30.4947 76.1998 29.335 75.9986 28.2282 76.0983C27.1215 76.198 26.1104 76.6586 25.1951 77.4803C24.2713 78.2815 23.4776 79.4833 22.8139 81.0857L20.222 87.3436L48.3284 98.9848L46.5975 103.164L15.0698 90.1057ZM54.2298 84.7367L36.7635 86.4828L38.5445 82.1215L55.8174 80.1684L56.0773 80.2761L54.2298 84.7367Z" fill="#A0D5DE"/>
<path d="M41.3386 50.3365L57.167 79.3949L54.11 82.8551L37.1486 50.5127L39.1194 48.282L41.3386 50.3365ZM70.9159 63.8328L40.1127 51.7241L37.8004 49.775L39.7711 47.5443L73.9885 60.355L70.9159 63.8328ZM61.0607 55.9077L63.8359 58.3596L51.1422 72.7273L48.367 70.2754L61.0607 55.9077Z" fill="#A0D5DE"/>
<path d="M61.7942 28.6763L79.0427 58.1213L75.1396 60.4076L57.8911 30.9627L61.7942 28.6763ZM81.8898 34.6961L83.7615 37.8914L70.576 45.6153L68.7043 42.42L81.8898 34.6961ZM76.1324 20.2771L78.0042 23.4724L62.8166 32.3691L60.9448 29.1738L76.1324 20.2771Z" fill="#A0D5DE"/>
<path d="M98.9639 13.3352L106.885 46.5283L102.553 47.5619L94.6324 14.3688L98.9639 13.3352ZM109.633 10.7893L110.493 14.3913L84.8455 20.5113L83.986 16.9093L109.633 10.7893Z" fill="#A0D5DE"/>
<path d="M150.628 38.2944L155.013 39.3055C154.3 41.354 153.265 43.0956 151.908 44.5305C150.551 45.9654 148.869 46.9647 146.863 47.5283C144.86 48.0768 142.527 48.0438 139.862 47.4294C137.914 46.98 136.224 46.2056 134.794 45.1061C133.379 44.0102 132.255 42.6606 131.422 41.0575C130.593 39.4391 130.083 37.614 129.895 35.5821C129.724 33.5384 129.908 31.3519 130.445 29.0224L131.209 25.7109C131.746 23.3814 132.537 21.3428 133.581 19.5953C134.644 17.8361 135.91 16.4123 137.38 15.3241C138.865 14.2394 140.514 13.5212 142.326 13.1695C144.139 12.8179 146.074 12.879 148.129 13.353C150.641 13.9323 152.656 14.894 154.174 16.2382C155.692 17.5825 156.738 19.2026 157.311 21.0985C157.903 22.9828 158.06 25.0475 157.783 27.2926L153.398 26.2815C153.543 24.6794 153.454 23.2559 153.132 22.011C152.813 20.7509 152.191 19.6935 151.266 18.8387C150.34 17.9839 149.017 17.3581 147.297 16.9614C145.82 16.6209 144.453 16.6024 143.197 16.9059C141.955 17.213 140.835 17.7964 139.835 18.6562C138.85 19.5195 138 20.6304 137.286 21.9891C136.572 23.3477 136.011 24.9101 135.604 26.6763L134.83 30.0335C134.454 31.6626 134.269 33.2314 134.274 34.7398C134.294 36.2518 134.53 37.629 134.981 38.8715C135.432 40.114 136.126 41.172 137.063 42.0455C138.004 42.9038 139.212 43.5033 140.689 43.8438C142.562 44.2756 144.122 44.3228 145.371 43.9853C146.619 43.6478 147.653 42.9883 148.473 42.0067C149.308 41.0287 150.026 39.7912 150.628 38.2944Z" fill="#A0D5DE"/>
<path d="M185.902 49.7078L184.718 51.5098C183.311 53.6514 181.782 55.395 180.131 56.7408C178.48 58.0866 176.762 59.0233 174.975 59.551C173.189 60.0786 171.385 60.1925 169.563 59.8926C167.754 59.6013 165.981 58.8851 164.244 57.7439C162.56 56.6371 161.218 55.3069 160.22 53.7534C159.234 52.2085 158.616 50.503 158.365 48.6369C158.128 46.7793 158.286 44.8173 158.84 42.7507C159.394 40.6842 160.374 38.5801 161.781 36.4386L162.965 34.6365C164.372 32.495 165.904 30.7621 167.559 29.4379C169.236 28.1093 170.974 27.1855 172.773 26.6664C174.581 26.1343 176.39 26.0139 178.199 26.3052C180.021 26.6051 181.774 27.3084 183.459 28.4153C185.196 29.5565 186.557 30.8995 187.542 32.4444C188.541 33.9979 189.148 35.7056 189.364 37.5677C189.602 39.4252 189.431 41.3787 188.851 43.4281C188.292 45.473 187.309 47.5662 185.902 49.7078ZM180.977 49.0516L182.187 47.2103C183.302 45.5128 184.113 43.8952 184.618 42.3577C185.137 40.8288 185.355 39.4016 185.272 38.076C185.19 36.7504 184.815 35.5417 184.149 34.4497C183.496 33.3663 182.563 32.4256 181.348 31.6276C180.173 30.8554 178.959 30.3846 177.705 30.2153C176.465 30.0546 175.213 30.1951 173.951 30.6369C172.701 31.0873 171.465 31.8453 170.241 32.9108C169.017 33.9764 167.848 35.358 166.732 37.0556L165.522 38.8968C164.398 40.6075 163.586 42.2423 163.085 43.8015C162.593 45.3476 162.39 46.7942 162.477 48.1414C162.585 49.4841 162.96 50.6929 163.6 51.7677C164.253 52.8511 165.167 53.7789 166.342 54.5511C167.569 55.3577 168.81 55.8456 170.064 56.0149C171.317 56.1843 172.562 56.0394 173.798 55.5805C175.056 55.1171 176.284 54.344 177.482 53.2612C178.688 52.1654 179.853 50.7622 180.977 49.0516Z" fill="#A0D5DE"/>
<path d="M206.95 47.8373L209.37 51.4913L192.349 76.1742L221.704 70.1131L224.137 73.7866L188.025 81.0625L186.135 78.2096L206.95 47.8373ZM206.16 46.6453L208.296 49.8694L191.293 61.8896L180.195 69.2407L177.71 65.489L206.16 46.6453ZM222.778 71.7349L224.913 74.959L196.463 93.8027L193.978 90.051L205.077 82.6999L222.778 71.7349Z" fill="#A0D5DE"/>
<path d="M211.901 106.031L210.158 97.0819L213.77 96.3786L215.513 105.328C215.85 107.061 216.399 108.41 217.161 109.377C217.922 110.343 218.841 110.976 219.918 111.275C220.998 111.59 222.167 111.625 223.425 111.38C224.575 111.156 225.607 110.693 226.521 109.99C227.437 109.302 228.098 108.361 228.502 107.168C228.922 105.972 228.963 104.508 228.626 102.775L227.085 94.8608L197.224 100.675L196.359 96.2347L229.855 89.713L232.261 102.067C232.753 104.598 232.733 106.822 232.199 108.741C231.665 110.659 230.712 112.222 229.339 113.428C227.982 114.632 226.314 115.426 224.335 115.812C222.188 116.23 220.267 116.134 218.572 115.525C216.878 114.915 215.462 113.814 214.324 112.221C213.201 110.625 212.393 108.562 211.901 106.031Z" fill="#A0D5DE"/>
</svg>
