<svg width="262" height="262" viewBox="0 0 262 262" fill="none" xmlns="http://www.w3.org/2000/svg">
<path d="M242.935 133.761C242.924 134.177 242.762 134.533 242.45 134.828C242.138 135.124 241.774 135.266 241.358 135.255C240.942 135.244 240.587 135.082 240.291 134.77C239.995 134.458 239.853 134.094 239.864 133.678C239.875 133.262 240.037 132.906 240.349 132.611C240.661 132.315 241.025 132.173 241.441 132.184C241.857 132.195 242.213 132.357 242.508 132.669C242.804 132.981 242.946 133.345 242.935 133.761Z" fill="#B49359"/>
<path d="M249.088 158.081L248.615 157.997L234.591 145.76L233.763 150.391C233.63 151.131 233.602 151.744 233.678 152.228C233.751 152.729 233.929 153.143 234.211 153.47C234.507 153.815 234.926 154.11 235.468 154.353C236.009 154.596 236.683 154.83 237.487 155.055L237.39 155.599C236.91 155.464 236.269 155.325 235.466 155.181C235.166 155.128 234.732 155.058 234.162 154.973C233.605 154.906 233.022 154.85 232.412 154.806C232.548 154.229 232.678 153.594 232.802 152.901C232.941 152.211 233.073 151.519 233.197 150.826C233.318 150.149 233.431 149.519 233.535 148.936C233.701 148.007 233.87 147.021 234.04 145.979C234.223 144.955 234.379 143.991 234.508 143.088L234.981 143.172L248.992 155.48L249.817 150.873C249.949 150.133 249.979 149.512 249.906 149.012C249.83 148.527 249.644 148.111 249.348 147.766C249.065 147.439 248.653 147.154 248.112 146.911C247.57 146.668 246.897 146.433 246.092 146.208L246.189 145.665C246.435 145.741 246.724 145.809 247.055 145.868C247.382 145.943 247.735 146.015 248.113 146.082C248.413 146.136 248.841 146.196 249.398 146.263C249.967 146.349 250.557 146.414 251.167 146.458C251.047 147.038 250.917 147.673 250.777 148.363C250.638 149.053 250.506 149.745 250.382 150.438C250.258 151.131 250.145 151.761 250.044 152.328C249.883 153.225 249.711 154.186 249.528 155.21C249.358 156.252 249.211 157.209 249.088 158.081Z" fill="#B49359"/>
<path d="M244.559 173.208C244.046 172.976 243.542 172.764 243.049 172.573C242.551 172.397 242.173 172.267 241.914 172.184C241.639 172.096 241.37 172.018 241.106 171.95C240.858 171.888 240.647 171.837 240.475 171.798L240.643 171.273C241.571 171.469 242.321 171.567 242.893 171.565C243.48 171.568 243.946 171.399 244.291 171.056C244.647 170.733 244.954 170.167 245.213 169.36L245.82 167.463C245.986 166.945 246.068 166.534 246.064 166.23C246.071 165.947 245.952 165.716 245.707 165.536C245.477 165.362 245.08 165.184 244.517 165.004L233.18 161.372C232.632 161.196 232.206 161.11 231.902 161.113C231.598 161.117 231.359 161.234 231.185 161.463C231.021 161.713 230.856 162.097 230.69 162.615L230.155 164.284C229.848 165.244 229.746 166.009 229.848 166.58C229.946 167.165 230.251 167.658 230.761 168.056C231.282 168.475 232.029 168.899 233 169.328L232.832 169.854C232.435 169.676 231.894 169.478 231.208 169.258C230.918 169.165 230.497 169.039 229.944 168.878C229.401 168.738 228.83 168.605 228.231 168.481C228.511 167.713 228.807 166.842 229.119 165.867C229.447 164.897 229.733 164.031 229.977 163.269C230.084 162.934 230.223 162.499 230.394 161.966C230.56 161.448 230.733 160.882 230.913 160.267C231.108 159.658 231.298 159.038 231.483 158.409C231.683 157.784 231.866 157.187 232.032 156.619L232.489 156.765C232.353 157.293 232.29 157.701 232.298 157.989C232.302 158.293 232.426 158.534 232.671 158.714C232.916 158.893 233.313 159.07 233.861 159.246L245.198 162.878C245.761 163.059 246.187 163.145 246.476 163.136C246.779 163.133 247.021 163.009 247.2 162.764C247.39 162.539 247.575 162.17 247.756 161.657L248.213 161.803C248.017 162.362 247.812 162.951 247.596 163.571C247.396 164.196 247.191 164.81 246.981 165.415C246.785 166.025 246.605 166.588 246.439 167.106C246.268 167.64 246.129 168.074 246.021 168.409C245.797 169.11 245.543 169.902 245.26 170.786C244.987 171.69 244.754 172.497 244.559 173.208ZM238.002 166.773C238.002 166.773 237.926 166.748 237.774 166.699C237.621 166.65 237.545 166.626 237.545 166.626L238.885 162.443C238.885 162.443 238.961 162.468 239.114 162.517C239.266 162.566 239.342 162.59 239.342 162.59L238.002 166.773ZM240.807 168.402C239.958 168.063 239.305 167.82 238.848 167.673C238.386 167.542 237.964 167.416 237.583 167.294C237.202 167.171 236.781 167.045 236.319 166.914C235.857 166.782 235.182 166.608 234.294 166.391L234.462 165.865C234.969 165.96 235.466 166.036 235.953 166.091C236.449 166.166 236.889 166.105 237.271 165.908C237.664 165.732 237.967 165.308 238.182 164.638L238.639 164.784C238.478 165.287 238.455 165.7 238.57 166.022C238.696 166.365 238.899 166.648 239.18 166.873C239.461 167.097 239.762 167.286 240.082 167.439C240.418 167.597 240.716 167.743 240.975 167.876L240.807 168.402Z" fill="#B49359"/>
<path d="M240.671 182.238L240.232 182.044C240.437 181.54 240.546 181.133 240.559 180.825C240.581 180.537 240.48 180.291 240.255 180.087C240.045 179.89 239.669 179.672 239.127 179.433L228.234 174.633C227.707 174.4 227.292 174.27 226.99 174.242C226.688 174.213 226.438 174.304 226.24 174.515C226.036 174.739 225.81 175.094 225.561 175.579L225.122 175.386C225.3 175.062 225.501 174.644 225.727 174.131C225.961 173.64 226.191 173.138 226.417 172.625C226.669 172.054 226.897 171.517 227.101 171.013C227.321 170.515 227.484 170.106 227.59 169.785L228.029 169.979C227.839 170.49 227.733 170.889 227.711 171.176C227.683 171.479 227.781 171.732 228.006 171.936C228.231 172.14 228.607 172.358 229.134 172.59L240.027 177.39C240.569 177.629 240.983 177.759 241.271 177.781C241.573 177.81 241.826 177.711 242.03 177.486C242.243 177.283 242.466 176.935 242.7 176.444L243.139 176.637C242.989 176.938 242.797 177.335 242.563 177.826C242.329 178.317 242.086 178.848 241.834 179.419C241.608 179.932 241.393 180.44 241.188 180.945C240.977 181.463 240.805 181.895 240.671 182.238Z" fill="#B49359"/>
<path d="M235.506 192.672C234.973 193.583 234.398 194.248 233.782 194.666C233.172 195.106 232.554 195.449 231.928 195.694C231.559 195.849 231.411 196.04 231.482 196.267C231.558 196.516 231.877 196.842 232.439 197.245L232.16 197.721C231.665 197.394 231.056 197.009 230.332 196.567C229.609 196.125 228.646 195.552 227.445 194.848L227.724 194.372C228.374 194.623 228.896 194.808 229.29 194.927C229.697 195.055 230.062 195.129 230.383 195.151C230.696 195.186 231.034 195.179 231.396 195.132C232.212 195.035 232.935 194.735 233.564 194.232C234.206 193.737 234.737 193.13 235.158 192.412C235.554 191.736 235.742 191.02 235.72 190.266C235.704 189.534 235.496 188.781 235.095 188.009C234.687 187.25 234.098 186.498 233.33 185.751C232.554 185.018 231.607 184.324 230.489 183.669C229.329 182.99 228.232 182.505 227.197 182.214C226.176 181.931 225.24 181.819 224.39 181.877C223.532 181.949 222.779 182.175 222.129 182.555C221.486 182.957 220.97 183.49 220.582 184.152C220.218 184.773 219.962 185.495 219.815 186.317C219.667 187.139 219.756 187.905 220.082 188.615C220.304 189.154 220.618 189.615 221.022 190.001C221.419 190.4 222.01 190.895 222.795 191.485L222.516 191.961C221.26 191.225 220.241 190.637 219.46 190.198C218.693 189.767 218.039 189.412 217.498 189.132L217.777 188.656C218.403 188.949 218.832 189.07 219.065 189.021C219.29 188.986 219.394 188.76 219.379 188.343C219.319 187.622 219.321 186.89 219.385 186.149C219.454 185.429 219.751 184.621 220.277 183.723C221.045 182.412 222.017 181.433 223.193 180.787C224.361 180.154 225.666 179.889 227.108 179.992C228.541 180.109 230.045 180.628 231.619 181.55C233.165 182.456 234.352 183.531 235.181 184.777C236.009 186.022 236.46 187.325 236.535 188.685C236.601 190.059 236.259 191.388 235.506 192.672Z" fill="#B49359"/>
<path d="M222.445 210.43C222.046 210.033 221.649 209.657 221.254 209.305C220.85 208.965 220.541 208.711 220.328 208.542C220.102 208.363 219.877 208.196 219.654 208.04C219.443 207.893 219.264 207.772 219.116 207.675L219.458 207.242C220.258 207.753 220.926 208.107 221.462 208.307C222.011 208.516 222.507 208.521 222.95 208.321C223.397 208.143 223.883 207.722 224.409 207.057L225.644 205.494C225.982 205.067 226.202 204.711 226.305 204.426C226.411 204.163 226.381 203.904 226.215 203.65C226.061 203.406 225.752 203.101 225.287 202.734L215.95 195.351C215.498 194.993 215.129 194.763 214.844 194.66C214.558 194.556 214.293 194.582 214.049 194.736C213.808 194.912 213.519 195.213 213.181 195.64L212.095 197.014C211.469 197.805 211.105 198.486 211.001 199.056C210.886 199.639 210.998 200.207 211.336 200.759C211.677 201.335 212.227 201.994 212.986 202.737L212.643 203.17C212.334 202.864 211.897 202.488 211.332 202.041C211.094 201.853 210.744 201.586 210.282 201.242C209.823 200.919 209.335 200.595 208.819 200.268C209.35 199.648 209.933 198.936 210.568 198.133C211.216 197.339 211.788 196.629 212.284 196.001C212.502 195.725 212.785 195.367 213.132 194.928C213.47 194.501 213.83 194.032 214.215 193.52C214.612 193.018 215.007 192.505 215.402 191.98C215.809 191.466 216.189 190.971 216.544 190.497L216.92 190.795C216.608 191.241 216.405 191.601 216.312 191.874C216.209 192.159 216.24 192.429 216.407 192.683C216.573 192.937 216.882 193.243 217.334 193.6L226.672 200.983C227.136 201.35 227.505 201.58 227.778 201.674C228.063 201.777 228.333 201.745 228.587 201.579C228.843 201.435 229.147 201.155 229.496 200.738L229.873 201.036C229.493 201.49 229.094 201.97 228.674 202.474C228.267 202.989 227.859 203.492 227.45 203.984C227.053 204.486 226.686 204.951 226.348 205.378C226.001 205.817 225.718 206.175 225.5 206.451C225.043 207.028 224.527 207.681 223.952 208.409C223.379 209.159 222.877 209.833 222.445 210.43ZM218.567 202.101C218.567 202.101 218.504 202.052 218.379 201.952C218.253 201.853 218.19 201.803 218.19 201.803L220.914 198.358C220.914 198.358 220.977 198.408 221.103 198.507C221.228 198.606 221.291 198.656 221.291 198.656L218.567 202.101ZM220.62 204.612C219.945 203.996 219.418 203.539 219.042 203.242C218.656 202.957 218.305 202.69 217.992 202.442C217.678 202.194 217.328 201.927 216.941 201.642C216.555 201.357 215.984 200.957 215.229 200.441L215.571 200.008C216.013 200.275 216.451 200.52 216.887 200.743C217.326 200.988 217.759 201.085 218.186 201.035C218.616 201.008 219.049 200.718 219.485 200.166L219.862 200.463C219.534 200.877 219.368 201.256 219.362 201.598C219.359 201.963 219.45 202.3 219.634 202.609C219.818 202.917 220.034 203.2 220.28 203.456C220.539 203.722 220.767 203.963 220.963 204.179L220.62 204.612Z" fill="#B49359"/>
<path d="M207.661 212.609C207.357 212.893 206.991 213.028 206.561 213.014C206.131 213 205.774 212.841 205.49 212.538C205.205 212.234 205.07 211.868 205.084 211.438C205.098 211.008 205.257 210.651 205.561 210.367C205.864 210.082 206.231 209.947 206.661 209.961C207.09 209.975 207.447 210.134 207.732 210.438C208.016 210.741 208.151 211.108 208.137 211.538C208.123 211.967 207.964 212.324 207.661 212.609Z" fill="#B49359"/>
<path d="M199.967 230.459L199.684 230.071C200.115 229.738 200.414 229.441 200.581 229.181C200.744 228.944 200.78 228.68 200.688 228.391C200.606 228.114 200.39 227.737 200.042 227.258L193.04 217.632C192.701 217.166 192.408 216.845 192.161 216.668C191.914 216.492 191.652 216.445 191.376 216.527C191.086 216.619 190.712 216.812 190.253 217.106L189.971 216.718C190.287 216.527 190.672 216.267 191.125 215.938C191.574 215.631 192.025 215.313 192.478 214.983C192.983 214.616 193.45 214.266 193.881 213.933C194.321 213.613 194.667 213.341 194.92 213.118L195.203 213.506C194.781 213.852 194.489 214.144 194.326 214.381C194.149 214.628 194.107 214.897 194.199 215.186C194.29 215.475 194.506 215.853 194.845 216.319L201.847 225.945C202.195 226.424 202.488 226.745 202.726 226.909C202.973 227.085 203.241 227.127 203.531 227.035C203.816 226.966 204.184 226.778 204.633 226.471L204.916 226.859C204.635 227.044 204.269 227.29 203.82 227.597C203.371 227.904 202.894 228.241 202.389 228.608C201.936 228.937 201.495 229.268 201.064 229.601C200.621 229.944 200.255 230.23 199.967 230.459Z" fill="#B49359"/>
<path d="M190.313 236.866C189.394 237.386 188.564 237.672 187.821 237.725C187.073 237.799 186.366 237.786 185.702 237.684C185.305 237.633 185.081 237.723 185.028 237.955C184.97 238.209 185.082 238.651 185.365 239.281L184.885 239.553C184.621 239.022 184.287 238.384 183.883 237.638C183.479 236.892 182.935 235.913 182.249 234.702L182.729 234.43C183.166 234.974 183.524 235.396 183.805 235.697C184.093 236.011 184.371 236.258 184.638 236.438C184.891 236.626 185.187 236.79 185.523 236.93C186.278 237.256 187.054 237.36 187.85 237.24C188.654 237.134 189.418 236.876 190.142 236.466C190.825 236.08 191.346 235.555 191.705 234.892C192.059 234.25 192.257 233.495 192.298 232.626C192.325 231.764 192.194 230.818 191.904 229.787C191.601 228.764 191.13 227.688 190.491 226.56C189.829 225.391 189.124 224.421 188.374 223.65C187.633 222.892 186.88 222.326 186.116 221.95C185.337 221.581 184.572 221.399 183.82 221.402C183.062 221.427 182.348 221.628 181.68 222.006C181.054 222.361 180.47 222.857 179.93 223.494C179.389 224.131 179.082 224.838 179.007 225.616C178.93 226.193 178.969 226.75 179.126 227.286C179.268 227.831 179.532 228.555 179.915 229.459L179.435 229.731C178.717 228.464 178.131 227.445 177.676 226.673C177.228 225.915 176.841 225.28 176.513 224.766L176.994 224.494C177.388 225.061 177.699 225.382 177.924 225.457C178.136 225.539 178.34 225.396 178.536 225.027C178.847 224.374 179.215 223.742 179.642 223.133C180.064 222.545 180.727 221.995 181.632 221.482C182.954 220.733 184.286 220.375 185.628 220.406C186.955 220.445 188.217 220.871 189.412 221.683C190.594 222.503 191.634 223.707 192.533 225.294C193.415 226.854 193.903 228.38 193.994 229.873C194.085 231.365 193.822 232.719 193.204 233.933C192.572 235.155 191.608 236.132 190.313 236.866Z" fill="#B49359"/>
<path d="M170.066 245.677C169.921 245.132 169.767 244.608 169.604 244.105C169.426 243.608 169.288 243.232 169.188 242.979C169.083 242.711 168.973 242.453 168.859 242.206C168.751 241.974 168.657 241.778 168.578 241.62L169.092 241.419C169.526 242.262 169.924 242.905 170.287 243.347C170.655 243.804 171.081 244.058 171.565 244.109C172.04 244.18 172.672 244.061 173.462 243.752L175.316 243.024C175.822 242.825 176.192 242.628 176.425 242.434C176.649 242.26 176.753 242.022 176.737 241.718C176.727 241.43 176.614 241.01 176.398 240.459L172.049 229.378C171.839 228.842 171.636 228.457 171.442 228.224C171.247 227.991 171.006 227.88 170.718 227.89C170.42 227.92 170.018 228.035 169.512 228.234L167.881 228.874C166.943 229.242 166.285 229.646 165.908 230.087C165.516 230.533 165.326 231.08 165.34 231.727C165.344 232.396 165.487 233.242 165.769 234.266L165.255 234.468C165.142 234.048 164.954 233.503 164.691 232.833C164.58 232.55 164.412 232.143 164.186 231.613C163.952 231.103 163.694 230.577 163.412 230.035C164.184 229.766 165.046 229.445 165.999 229.071C166.958 228.712 167.81 228.386 168.555 228.094C168.882 227.965 169.307 227.799 169.828 227.594C170.335 227.395 170.883 227.172 171.473 226.923C172.068 226.689 172.669 226.445 173.274 226.191C173.884 225.951 174.462 225.716 175.007 225.484L175.183 225.931C174.688 226.16 174.332 226.368 174.113 226.557C173.88 226.752 173.772 227 173.788 227.304C173.804 227.607 173.917 228.027 174.127 228.563L178.476 239.644C178.692 240.195 178.894 240.58 179.083 240.798C179.278 241.031 179.527 241.139 179.83 241.124C180.124 241.128 180.527 241.039 181.039 240.855L181.215 241.302C180.658 241.503 180.071 241.716 179.455 241.941C178.844 242.181 178.238 242.41 177.636 242.629C177.04 242.863 176.489 243.079 175.983 243.278C175.462 243.482 175.037 243.649 174.709 243.778C174.024 244.046 173.25 244.35 172.386 244.689C171.513 245.049 170.74 245.378 170.066 245.677ZM170.911 236.528C170.911 236.528 170.881 236.454 170.823 236.305C170.765 236.156 170.735 236.081 170.735 236.081L174.824 234.477C174.824 234.477 174.853 234.551 174.911 234.7C174.97 234.849 174.999 234.924 174.999 234.924L170.911 236.528ZM171.42 239.732C171.146 238.859 170.922 238.2 170.747 237.753C170.556 237.312 170.388 236.905 170.242 236.533C170.096 236.16 169.928 235.754 169.738 235.313C169.547 234.872 169.256 234.238 168.863 233.413L169.377 233.211C169.624 233.664 169.879 234.097 170.144 234.509C170.4 234.941 170.724 235.243 171.119 235.415C171.504 235.608 172.024 235.576 172.679 235.319L172.854 235.765C172.363 235.958 172.029 236.201 171.851 236.494C171.665 236.808 171.574 237.145 171.577 237.504C171.581 237.864 171.625 238.216 171.709 238.561C171.798 238.921 171.873 239.244 171.934 239.53L171.42 239.732Z" fill="#B49359"/>
<path d="M152.409 250.445C151.37 250.635 150.492 250.633 149.773 250.439C149.041 250.264 148.379 250.019 147.784 249.704C147.427 249.526 147.185 249.538 147.059 249.74C146.92 249.96 146.881 250.414 146.942 251.103L146.399 251.202C146.324 250.614 146.218 249.901 146.082 249.064C145.945 248.227 145.751 247.124 145.501 245.755L146.044 245.656C146.278 246.312 146.478 246.829 146.644 247.205C146.814 247.597 146.995 247.921 147.188 248.179C147.366 248.439 147.591 248.691 147.863 248.934C148.469 249.49 149.168 249.842 149.959 249.99C150.754 250.154 151.56 250.161 152.379 250.011C153.15 249.87 153.814 249.546 154.372 249.037C154.917 248.547 155.351 247.898 155.675 247.091C155.983 246.286 156.17 245.349 156.235 244.28C156.284 243.214 156.192 242.044 155.959 240.769C155.717 239.447 155.369 238.299 154.914 237.324C154.463 236.366 153.937 235.584 153.338 234.978C152.724 234.374 152.061 233.951 151.349 233.707C150.625 233.481 149.885 233.437 149.13 233.576C148.421 233.705 147.708 233.982 146.988 234.406C146.269 234.831 145.746 235.398 145.421 236.108C145.158 236.628 145.012 237.167 144.984 237.725C144.941 238.286 144.951 239.056 145.017 240.037L144.474 240.136C144.212 238.704 143.992 237.548 143.816 236.67C143.642 235.807 143.484 235.079 143.343 234.487L143.886 234.388C144.073 235.053 144.261 235.458 144.45 235.602C144.623 235.749 144.863 235.681 145.169 235.398C145.676 234.882 146.232 234.406 146.835 233.971C147.426 233.554 148.233 233.252 149.256 233.065C150.751 232.791 152.127 232.889 153.384 233.359C154.625 233.831 155.677 234.648 156.54 235.807C157.387 236.97 157.974 238.448 158.302 240.243C158.625 242.005 158.584 243.607 158.18 245.047C157.777 246.487 157.084 247.679 156.102 248.623C155.104 249.57 153.873 250.177 152.409 250.445Z" fill="#B49359"/>
<path d="M142.352 251.645C142.015 251.642 141.575 251.643 141.031 251.648C140.487 251.653 139.951 251.665 139.423 251.686C138.672 251.715 137.953 251.751 137.266 251.793C136.579 251.836 136.092 251.862 135.804 251.874C134.509 251.924 133.43 251.781 132.569 251.446C131.691 251.112 131.032 250.633 130.592 250.009C130.136 249.402 129.893 248.707 129.863 247.924C129.844 247.444 129.921 246.929 130.092 246.378C130.262 245.827 130.578 245.302 131.039 244.804C131.485 244.307 132.109 243.882 132.912 243.531C133.715 243.196 134.741 243.004 135.988 242.956L138.29 242.867L138.309 243.347L136.246 243.426C135.111 243.47 134.254 243.679 133.677 244.054C133.083 244.445 132.694 244.94 132.509 245.54C132.309 246.156 132.223 246.832 132.251 247.567C132.3 248.83 132.641 249.794 133.275 250.458C133.894 251.139 134.931 251.451 136.386 251.395C137.121 251.366 137.596 251.212 137.809 250.931C138.022 250.651 138.113 250.095 138.081 249.264L137.622 237.369C137.599 236.793 137.535 236.363 137.428 236.079C137.321 235.795 137.129 235.61 136.854 235.525C136.562 235.44 136.144 235.392 135.599 235.381L135.581 234.901C135.95 234.919 136.414 234.917 136.974 234.896C137.518 234.891 138.07 234.877 138.629 234.856C139.253 234.832 139.836 234.801 140.379 234.764C140.923 234.743 141.362 234.71 141.696 234.665L141.715 235.145C141.172 235.198 140.767 235.278 140.499 235.384C140.215 235.491 140.031 235.69 139.946 235.982C139.861 236.273 139.83 236.707 139.852 237.282L140.311 249.178C140.334 249.769 140.399 250.199 140.505 250.467C140.612 250.751 140.811 250.936 141.103 251.02C141.379 251.122 141.789 251.17 142.333 251.165L142.352 251.645ZM138.21 243.278C137.345 243.28 136.664 243.266 136.167 243.237C135.67 243.224 135.269 243.208 134.964 243.187C134.643 243.168 134.338 243.14 134.048 243.103C132.97 242.968 132.19 242.67 131.708 242.208C131.21 241.763 130.83 241.049 130.568 240.067L129.874 237.644C129.687 236.946 129.508 236.441 129.335 236.127C129.148 235.83 128.878 235.697 128.527 235.726C128.256 235.753 128.036 235.849 127.866 236.016C127.68 236.183 127.489 236.407 127.292 236.687L126.922 236.437C127.238 235.928 127.575 235.531 127.932 235.245C128.274 234.975 128.773 234.828 129.428 234.803C130.02 234.78 130.546 234.936 131.008 235.27C131.469 235.605 131.831 236.279 132.095 237.294L132.715 239.672C132.885 240.354 133.076 240.939 133.287 241.427C133.482 241.932 133.754 242.322 134.101 242.596C134.431 242.872 134.917 242.997 135.556 242.972L138.146 242.872L138.21 243.278Z" fill="#B49359"/>
<path d="M118.179 251.44L113.924 235.818C113.748 235.188 113.52 234.754 113.239 234.515C112.957 234.293 112.689 234.16 112.436 234.118L112.486 233.64C112.801 233.705 113.189 233.762 113.651 233.81C114.111 233.874 114.571 233.931 115.033 233.979C115.653 234.044 116.235 234.096 116.778 234.137C117.319 234.193 117.758 234.223 118.096 234.226L118.046 234.704C117.231 234.651 116.699 234.732 116.452 234.947C116.202 235.179 116.194 235.717 116.428 236.562L119.628 248.889L119.214 249.159L124.495 238.804C124.816 238.194 125.023 237.669 125.118 237.228C125.21 236.804 125.206 236.457 125.106 236.189C124.989 235.92 124.777 235.713 124.471 235.568C124.148 235.422 123.741 235.315 123.249 235.247L123.299 234.77C123.742 234.848 124.209 234.913 124.703 234.965C125.178 235.031 125.623 235.085 126.037 235.128C126.435 235.17 126.778 235.198 127.066 235.212C127.336 235.24 127.593 235.251 127.835 235.244L127.785 235.721C127.458 235.768 127.113 235.916 126.749 236.168C126.383 236.435 126.027 236.913 125.682 237.601L118.561 251.48C118.498 251.474 118.434 251.467 118.37 251.46C118.307 251.454 118.243 251.447 118.179 251.44ZM116.327 240.991L116.377 240.514L123.49 241.257L123.202 241.709L116.327 240.991Z" fill="#B49359"/>
<path d="M96.4439 247.145C96.6495 246.569 96.8357 246.005 97.0026 245.453C97.1502 244.912 97.2599 244.495 97.3316 244.199C97.4221 243.826 97.4992 243.474 97.5629 243.144C97.6266 242.814 97.6808 242.522 97.7257 242.27L98.2621 242.4C98.1068 243.515 98.047 244.406 98.0827 245.073C98.1146 245.756 98.3298 246.294 98.7284 246.687C99.1269 247.08 99.816 247.395 100.796 247.633L102.265 247.989C102.794 248.118 103.209 248.169 103.512 248.144C103.795 248.13 104.017 247.995 104.178 247.737C104.336 247.496 104.484 247.087 104.624 246.512L107.431 234.944C107.567 234.384 107.614 233.951 107.573 233.644C107.517 233.334 107.329 233.091 107.009 232.915C106.69 232.739 106.207 232.556 105.562 232.366L105.675 231.9C106.072 232.029 106.581 232.169 107.203 232.32C107.821 232.486 108.449 232.647 109.087 232.802C109.693 232.949 110.262 233.079 110.795 233.191C111.324 233.32 111.755 233.408 112.089 233.456L111.976 233.922C111.44 233.825 111.028 233.791 110.741 233.82C110.439 233.846 110.207 233.987 110.045 234.244C109.884 234.502 109.736 234.91 109.6 235.47L106.793 247.038C106.653 247.613 106.598 248.045 106.627 248.332C106.653 248.634 106.794 248.866 107.051 249.027C107.289 249.2 107.67 249.359 108.195 249.502L108.082 249.969C107.511 249.814 106.908 249.651 106.274 249.481C105.637 249.326 105.009 249.166 104.391 248.999C103.769 248.848 103.194 248.709 102.665 248.58C102.121 248.448 101.678 248.341 101.335 248.258C100.62 248.084 99.8116 247.888 98.9098 247.669C97.9887 247.462 97.1667 247.287 96.4439 247.145ZM102.051 239.812C102.051 239.812 102.07 239.735 102.108 239.579C102.145 239.424 102.164 239.346 102.164 239.346L106.829 240.478C106.829 240.478 106.81 240.555 106.772 240.711C106.735 240.866 106.716 240.944 106.716 240.944L102.051 239.812ZM100.861 242.783C101.138 241.912 101.333 241.243 101.447 240.777C101.544 240.307 101.64 239.877 101.735 239.488C101.829 239.1 101.925 238.67 102.022 238.2C102.12 237.73 102.245 237.044 102.398 236.143L102.935 236.273C102.876 236.785 102.837 237.286 102.817 237.775C102.778 238.276 102.87 238.71 103.094 239.077C103.298 239.456 103.742 239.729 104.427 239.895L104.313 240.361C103.8 240.237 103.387 240.243 103.074 240.381C102.741 240.531 102.473 240.754 102.269 241.051C102.066 241.347 101.899 241.661 101.769 241.991C101.636 242.338 101.512 242.645 101.397 242.914L100.861 242.783Z" fill="#B49359"/>
<path d="M81.3133 241.56C81.5909 241.015 81.8478 240.48 82.0841 239.954C82.2997 239.437 82.462 239.036 82.5709 238.752C82.7085 238.394 82.83 238.055 82.9355 237.735C83.0409 237.416 83.132 237.134 83.2088 236.889L83.7242 237.087C83.4274 238.173 83.254 239.049 83.2039 239.715C83.1481 240.396 83.2927 240.957 83.6376 241.398C83.9826 241.839 84.6256 242.24 85.5666 242.601L86.7766 243.066L91.6698 230.316C91.8991 229.719 92.0188 229.251 92.0289 228.912C92.0241 228.567 91.8774 228.28 91.5889 228.049C91.3004 227.818 90.8482 227.568 90.2323 227.297L90.4043 226.849C90.7812 227.028 91.2684 227.232 91.8659 227.461C92.4577 227.705 93.0598 227.945 93.6723 228.18C94.3444 228.438 94.9822 228.674 95.5854 228.889C96.168 229.112 96.6442 229.278 97.0142 229.386L96.8422 229.834C96.2034 229.623 95.6996 229.507 95.3308 229.485C94.962 229.464 94.668 229.582 94.4488 229.841C94.2147 230.094 93.9829 230.519 93.7536 231.116L88.8604 243.865L90.0703 244.33C90.9964 244.685 91.7426 244.817 92.3089 244.726C92.8602 244.629 93.343 244.309 93.7573 243.766C94.1659 243.237 94.6231 242.47 95.129 241.464L95.6444 241.662C95.5228 241.89 95.4018 242.16 95.2814 242.474C95.146 242.782 95.0096 243.115 94.872 243.474C94.7631 243.757 94.6232 244.166 94.4524 244.701C94.261 245.244 94.0862 245.811 93.9281 246.402C93.3064 246.146 92.6325 245.87 91.9063 245.574C91.1651 245.273 90.4211 244.979 89.6742 244.692C88.9274 244.405 88.2477 244.144 87.6353 243.909C87.0228 243.674 86.3506 243.416 85.6187 243.135C84.8718 242.849 84.1221 242.57 83.3695 242.298C82.6168 242.026 81.9315 241.78 81.3133 241.56Z" fill="#B49359"/>
<path d="M66.2284 233.611C65.3333 233.05 64.6859 232.456 64.2861 231.828C63.8642 231.206 63.5399 230.578 63.3131 229.945C63.1692 229.572 62.9827 229.417 62.7537 229.482C62.5027 229.551 62.1675 229.86 61.7482 230.41L61.2803 230.117C61.6215 229.632 62.0239 229.034 62.4874 228.324C62.951 227.614 63.552 226.669 64.2906 225.489L64.7585 225.782C64.4884 226.424 64.2879 226.941 64.157 227.331C64.0177 227.734 63.9326 228.096 63.9018 228.417C63.8575 228.729 63.8539 229.066 63.8909 229.429C63.9633 230.248 64.2417 230.98 64.7263 231.623C65.2024 232.279 65.7931 232.828 66.4983 233.27C67.1628 233.686 67.8725 233.894 68.6272 233.895C69.3598 233.9 70.1181 233.714 70.9019 233.337C71.6722 232.951 72.4417 232.385 73.2105 231.639C73.9658 230.885 74.6873 229.958 75.3749 228.86C76.0881 227.721 76.6053 226.638 76.9266 225.612C77.2394 224.6 77.3791 223.668 77.3458 222.817C77.2989 221.957 77.0951 221.197 76.7343 220.537C76.3515 219.882 75.8346 219.351 75.1836 218.943C74.5734 218.561 73.8595 218.284 73.0422 218.112C72.2249 217.941 71.4565 218.007 70.7372 218.312C70.1926 218.518 69.7218 218.818 69.3246 219.211C68.9139 219.596 68.4022 220.172 67.7894 220.94L67.3215 220.647C68.094 219.413 68.7113 218.412 69.1731 217.644C69.6265 216.89 70.0009 216.246 70.2964 215.714L70.7643 216.007C70.4535 216.624 70.3192 217.05 70.3614 217.284C70.3901 217.509 70.613 217.62 71.0303 217.617C71.7528 217.579 72.4837 217.602 73.2231 217.688C73.9405 217.778 74.7399 218.099 75.6214 218.651C76.9098 219.458 77.8597 220.458 78.4711 221.652C79.0689 222.838 79.2952 224.15 79.15 225.589C78.9913 227.018 78.428 228.506 77.4602 230.052C76.5093 231.571 75.3993 232.726 74.1301 233.517C72.8609 234.308 71.5454 234.721 70.1835 234.756C68.808 234.782 67.4897 234.4 66.2284 233.611Z" fill="#B49359"/>
<path d="M51.6933 222.822C50.5433 221.828 49.7635 220.7 49.3539 219.436C48.9321 218.163 48.9089 216.831 49.2843 215.443C49.637 214.056 50.4149 212.666 51.6181 211.274C52.7899 209.918 54.0633 208.947 55.4384 208.359C56.8015 207.76 58.1647 207.553 59.528 207.738C60.8913 207.922 62.1359 208.5 63.2617 209.473C64.4117 210.467 65.1976 211.601 65.6193 212.875C66.0289 214.138 66.0521 215.47 65.6889 216.869C65.3136 218.257 64.5296 219.641 63.3369 221.022C62.1652 222.377 60.8917 223.349 59.5166 223.937C58.1414 224.525 56.7782 224.732 55.427 224.558C54.0637 224.374 52.8191 223.795 51.6933 222.822ZM52.0484 222.558C52.8353 223.238 53.7547 223.557 54.8065 223.514C55.8584 223.472 56.961 223.114 58.1144 222.44C59.2556 221.755 60.3703 220.784 61.4583 219.525C62.5673 218.242 63.3595 216.97 63.835 215.71C64.2879 214.452 64.4366 213.301 64.2812 212.258C64.1032 211.216 63.645 210.376 62.9066 209.738C62.1197 209.058 61.2004 208.739 60.1485 208.781C59.0966 208.824 58.0001 209.187 56.8588 209.872C55.695 210.558 54.5743 211.524 53.4967 212.771C52.3772 214.066 51.5911 215.343 51.1382 216.601C50.6732 217.849 50.5237 218.988 50.6895 220.02C50.8449 221.063 51.2979 221.91 52.0484 222.558Z" fill="#B49359"/>
<path d="M31.4479 200.421L31.8189 200.117C32.1764 200.527 32.4898 200.808 32.7591 200.96C33.0058 201.109 33.271 201.13 33.5545 201.021C33.8257 200.923 34.1901 200.686 34.6477 200.31L43.8495 192.758C44.2948 192.393 44.5983 192.082 44.76 191.825C44.9217 191.568 44.9534 191.304 44.8551 191.033C44.7466 190.749 44.5321 190.387 44.2117 189.946L44.5828 189.642C44.7915 189.946 45.0735 190.315 45.4288 190.748C45.7615 191.179 46.1055 191.611 46.4608 192.043C46.8567 192.526 47.2333 192.972 47.5908 193.383C47.9359 193.803 48.2274 194.133 48.4653 194.372L48.0943 194.677C47.7244 194.277 47.4161 194.002 47.1694 193.853C46.9124 193.691 46.6422 193.664 46.3587 193.773C46.0752 193.881 45.7108 194.118 45.2655 194.484L35.0619 202.858L35.0566 202.738L50.9942 197.265L51.2378 197.562L43.0343 212.118L52.8298 204.079C53.2751 203.714 53.5971 203.387 53.7959 203.1C53.9723 202.81 54.0196 202.502 53.9381 202.176C53.834 201.847 53.5964 201.432 53.2253 200.929L53.5963 200.625C53.7543 200.867 53.9805 201.168 54.2748 201.527C54.5568 201.896 54.8298 202.241 55.0937 202.563C55.3475 202.872 55.6125 203.182 55.8888 203.493C56.1425 203.803 56.368 204.052 56.5653 204.242L56.1943 204.547C55.8244 204.146 55.5038 203.882 55.2323 203.753C54.9383 203.622 54.6371 203.62 54.3288 203.749C54.0082 203.888 53.6253 204.14 53.18 204.506L44.1637 211.905C43.7061 212.281 43.4026 212.592 43.2532 212.839C43.0915 213.096 43.0649 213.366 43.1734 213.649C43.2594 213.931 43.4687 214.287 43.8015 214.717L43.4304 215.022C43.2703 214.802 43.0695 214.532 42.8281 214.212C42.5765 213.881 42.3239 213.56 42.0701 213.251C41.8468 212.979 41.6122 212.706 41.3664 212.431C41.1104 212.145 40.8951 211.907 40.7203 211.72L48.3582 198.403L48.7655 198.597L34.1528 203.604C34.031 203.455 33.9143 203.313 33.8026 203.177C33.6808 203.029 33.559 202.88 33.4372 202.732C33.0819 202.299 32.7256 201.877 32.3681 201.467C32.0004 201.044 31.6937 200.696 31.4479 200.421Z" fill="#B49359"/>
<path d="M29.9438 197.806C29.7856 197.509 29.5742 197.123 29.3095 196.648C29.0448 196.172 28.7774 195.708 28.5072 195.254C28.1223 194.608 27.7469 193.993 27.3811 193.41C27.0152 192.828 26.7586 192.412 26.6112 192.165C25.6204 190.502 25.2573 189.033 25.522 187.757C25.7867 186.482 26.517 185.489 27.7129 184.776C28.2078 184.481 28.7792 184.253 29.4273 184.09C30.0617 183.936 30.7354 183.925 31.4484 184.059C32.1395 184.188 32.8381 184.517 33.5444 185.046C34.2507 185.575 34.9232 186.375 35.5619 187.448L36.7411 189.427L36.3287 189.673L35.2724 187.899C34.691 186.923 34.0632 186.292 33.3891 186.004C32.7068 185.703 32.01 185.643 31.2987 185.825C30.5793 185.993 29.869 186.285 29.168 186.703C27.8622 187.481 27.0418 188.323 26.7069 189.231C26.3638 190.124 26.5649 191.196 27.31 192.447C27.6867 193.079 28.0492 193.422 28.3975 193.475C28.7458 193.529 29.2774 193.342 29.9922 192.917L40.219 186.824C40.7139 186.529 41.0564 186.26 41.2465 186.017C41.4284 185.759 41.4705 185.455 41.3728 185.103C41.2752 184.752 41.0681 184.279 40.7517 183.685L41.1641 183.44C41.3495 183.814 41.6059 184.275 41.9335 184.825C42.2473 185.383 42.5721 185.944 42.9078 186.508C43.2271 187.044 43.5329 187.541 43.8251 188C44.1035 188.468 44.3424 188.838 44.5419 189.11L44.1295 189.356C43.8236 188.905 43.5598 188.587 43.3381 188.402C43.1082 188.204 42.845 188.137 42.5485 188.202C42.2519 188.267 41.8562 188.447 41.3614 188.742L31.1345 194.834C30.6259 195.137 30.2793 195.399 30.0948 195.621C29.8965 195.851 29.8298 196.114 29.8947 196.411C29.9377 196.702 30.0915 197.085 30.3562 197.561L29.9438 197.806Z" fill="#B49359"/>
<path d="M19.6427 178.694L31.2228 167.377C31.6876 166.917 31.9558 166.507 32.0276 166.145C32.0847 165.79 32.0703 165.492 31.9844 165.25L32.4258 165.062C32.5221 165.369 32.6615 165.735 32.8438 166.162C33.0114 166.595 33.1864 167.025 33.3688 167.451C33.614 168.025 33.8509 168.559 34.0794 169.053C34.2932 169.553 34.4808 169.952 34.6423 170.248L34.2009 170.437C33.8508 169.699 33.5214 169.274 33.2126 169.162C32.8892 169.057 32.4152 169.312 31.7906 169.927L22.5766 178.719L22.1388 178.489L33.7551 178.066C34.4442 178.049 35.0042 177.975 35.435 177.843C35.8511 177.718 36.1517 177.546 36.3368 177.328C36.5156 177.095 36.5936 176.809 36.5709 176.471C36.5418 176.118 36.4372 175.71 36.257 175.248L36.6984 175.059C36.845 175.483 37.0158 175.924 37.2107 176.38C37.3846 176.828 37.5533 177.243 37.7168 177.625C37.874 177.993 38.0165 178.306 38.1444 178.565C38.2513 178.815 38.3666 179.044 38.4904 179.252L38.049 179.441C37.8497 179.178 37.5516 178.949 37.1547 178.753C36.7431 178.563 36.1529 178.485 35.3839 178.518L19.7936 179.047C19.7684 178.988 19.7433 178.93 19.7181 178.871C19.693 178.812 19.6678 178.753 19.6427 178.694ZM27.8714 171.993L28.3128 171.805L31.1234 178.381L30.5877 178.349L27.8714 171.993Z" fill="#B49359"/>
<path d="M12.0394 154.474L12.5036 154.352C12.6574 154.874 12.8405 155.256 13.053 155.498C13.2615 155.725 13.5326 155.844 13.8665 155.855C14.2004 155.867 14.6536 155.797 15.2262 155.647L29.0834 152.004C29.1078 152.097 29.1322 152.19 29.1566 152.283C29.177 152.36 29.1993 152.445 29.2237 152.538L16.7221 166.247L28.9778 163.025C29.5348 162.879 29.9637 162.716 30.2642 162.538C30.5452 162.348 30.7167 162.088 30.7787 161.757C30.8211 161.415 30.7785 160.939 30.6508 160.327L31.1151 160.205C31.1573 160.492 31.2374 160.859 31.3554 161.308C31.4579 161.761 31.562 162.189 31.6678 162.591C31.7695 162.978 31.8809 163.37 32.0022 163.769C32.1039 164.155 32.2047 164.476 32.3048 164.731L31.8406 164.853C31.6714 164.335 31.4903 163.961 31.2973 163.73C31.0848 163.489 30.8117 163.362 30.4778 163.35C30.1284 163.343 29.6752 163.412 29.1181 163.559L17.8373 166.524C17.2648 166.675 16.8592 166.831 16.6205 166.993C16.3664 167.159 16.2295 167.393 16.2099 167.696C16.1707 167.988 16.2125 168.399 16.3354 168.929L15.8711 169.051C15.8174 168.784 15.7475 168.455 15.6613 168.064C15.571 167.658 15.475 167.261 15.3733 166.874C15.2838 166.534 15.1907 166.211 15.0938 165.905C14.997 165.6 14.9083 165.325 14.8278 165.082L25.301 153.569L15.3665 156.18C14.7939 156.331 14.3672 156.501 14.0862 156.691C13.8011 156.865 13.6296 157.125 13.5717 157.471C13.5097 157.802 13.5503 158.271 13.6934 158.878L13.2292 159C13.1715 158.718 13.0913 158.35 12.9889 157.897C12.8823 157.429 12.7782 157.001 12.6765 156.615C12.5707 156.212 12.4593 155.82 12.3421 155.437C12.2209 155.039 12.12 154.718 12.0394 154.474Z" fill="#B49359"/>
<path d="M10.0284 138.5L10.505 138.443C10.6047 138.737 10.8395 139.015 11.2094 139.277C11.5633 139.541 12.1117 139.813 12.8546 140.095L22.964 143.764L23.0126 144.169L13.3879 150.981C12.8382 151.369 12.5053 151.683 12.389 151.923C12.2549 152.148 12.1984 152.348 12.2194 152.523L11.719 152.583C11.6967 152.264 11.6735 151.936 11.6493 151.6C11.6233 151.249 11.5864 150.875 11.5387 150.478C11.4758 149.953 11.409 149.397 11.3385 148.81C11.2501 148.208 11.1596 147.655 11.0668 147.15L11.5672 147.09C11.6148 147.487 11.7045 147.831 11.836 148.121C11.9676 148.412 12.1661 148.589 12.4318 148.654C12.6974 148.719 13.0462 148.605 13.4783 148.311L20.7154 143.357L20.8813 143.531L14.1862 141.119C13.2591 140.779 12.5582 140.646 12.0835 140.719C11.6069 140.776 11.3032 140.998 11.1723 141.384C11.0255 141.773 10.9843 142.301 11.0485 142.971L10.5719 143.028C10.5325 142.565 10.4921 142.095 10.4508 141.616C10.4094 141.138 10.364 140.692 10.3144 140.279C10.2648 139.866 10.2159 139.525 10.1676 139.257C10.1193 138.989 10.0729 138.737 10.0284 138.5ZM20.3332 142.992L25.0513 142.426C25.6232 142.357 26.0464 142.258 26.3209 142.128C26.5954 141.999 26.7641 141.793 26.827 141.511C26.888 141.214 26.902 140.793 26.8689 140.249L27.3455 140.192C27.3576 140.561 27.397 141.024 27.4638 141.58C27.5127 142.122 27.5706 142.671 27.6373 143.227C27.7117 143.847 27.7892 144.426 27.87 144.964C27.9348 145.504 28.0031 145.939 28.0749 146.269L27.5984 146.326C27.5018 145.79 27.3896 145.392 27.2618 145.133C27.1322 144.859 26.9187 144.691 26.6213 144.63C26.3239 144.569 25.8893 144.573 25.3174 144.642L20.4324 145.228L21.7554 143.764L20.3332 142.992Z" fill="#B49359"/>
<path d="M19.0963 134.843C19.0835 134.427 19.2243 134.063 19.5188 133.749C19.8132 133.436 20.1684 133.273 20.5842 133.26C21 133.247 21.3645 133.388 21.6777 133.683C21.991 133.977 22.154 134.332 22.1669 134.748C22.1797 135.164 22.0389 135.528 21.7444 135.842C21.4499 136.155 21.0948 136.318 20.679 136.331C20.2632 136.344 19.8987 136.203 19.5854 135.908C19.2722 135.614 19.1092 135.259 19.0963 134.843Z" fill="#B49359"/>
<path d="M11.6337 110.318L12.11 110.377L26.771 121.843L27.3496 117.175C27.4421 116.429 27.4375 115.816 27.3357 115.335C27.236 114.839 27.0361 114.436 26.7361 114.124C26.4222 113.795 25.9883 113.524 25.4344 113.31C24.8805 113.096 24.1956 112.899 23.3798 112.717L23.4477 112.169C23.934 112.278 24.5821 112.382 25.3919 112.483C25.6936 112.52 26.1312 112.566 26.7048 112.621C27.2645 112.658 27.85 112.682 28.4612 112.694C28.3567 113.277 28.2611 113.918 28.1745 114.617C28.072 115.314 27.9775 116.011 27.8909 116.71C27.8062 117.393 27.7275 118.028 27.6547 118.616C27.5386 119.552 27.4235 120.546 27.3095 121.596C27.1816 122.628 27.0774 123.598 26.997 124.507L26.5206 124.448L11.8686 112.91L11.2929 117.555C11.2004 118.301 11.204 118.922 11.3038 119.418C11.4055 119.899 11.6133 120.303 11.9272 120.632C12.2272 120.944 12.6541 121.206 13.2081 121.42C13.762 121.634 14.4468 121.831 15.2627 122.013L15.1948 122.561C14.9447 122.498 14.6529 122.445 14.3194 122.404C13.988 122.347 13.6317 122.295 13.2506 122.247C12.9489 122.21 12.5182 122.173 11.9585 122.136C11.3849 122.081 10.7925 122.047 10.1813 122.036C10.2699 121.451 10.3655 120.81 10.468 120.113C10.5705 119.416 10.665 118.719 10.7516 118.02C10.8382 117.321 10.9169 116.686 10.9878 116.114C11.1 115.209 11.22 114.241 11.3479 113.209C11.4619 112.159 11.5572 111.195 11.6337 110.318Z" fill="#B49359"/>
<path d="M15.2182 95.3543C15.7443 95.5566 16.259 95.7394 16.7621 95.9026C17.2692 96.0504 17.6545 96.1584 17.9178 96.2265C18.1966 96.2987 18.4697 96.3611 18.737 96.4138C18.9889 96.4624 19.202 96.5011 19.3764 96.5297L19.2381 97.0641C18.3001 96.9205 17.5458 96.8657 16.975 96.8998C16.3888 96.9299 15.9331 97.126 15.6081 97.4881C15.2715 97.8307 14.997 98.4124 14.7845 99.2334L14.2854 101.162C14.1491 101.689 14.0913 102.103 14.1121 102.406C14.1214 102.689 14.2534 102.914 14.5082 103.079C14.7475 103.24 15.1537 103.395 15.7268 103.543L27.2511 106.526C27.8087 106.67 28.2389 106.732 28.5418 106.711C28.8447 106.69 29.0767 106.56 29.2377 106.321C29.3874 106.062 29.5303 105.669 29.6666 105.143L30.1056 103.447C30.3581 102.471 30.4169 101.701 30.2819 101.137C30.1508 100.558 29.8191 100.083 29.2866 99.7143C28.7426 99.3256 27.9735 98.9447 26.9793 98.5717L27.1176 98.0373C27.5238 98.192 28.0754 98.3596 28.7724 98.54C29.0667 98.6162 29.4947 98.7187 30.0563 98.8475C30.6065 98.9568 31.1839 99.0567 31.7885 99.147C31.5531 99.929 31.3071 100.816 31.0505 101.807C30.7785 102.794 30.5422 103.675 30.3418 104.45C30.2536 104.79 30.1393 105.232 29.999 105.774C29.8627 106.301 29.7221 106.876 29.5773 107.499C29.4169 108.119 29.2623 108.748 29.1134 109.387C28.9491 110.023 28.8005 110.629 28.6676 111.206L28.2029 111.085C28.3083 110.551 28.3485 110.14 28.3237 109.852C28.303 109.55 28.1652 109.316 27.9104 109.15C27.6557 108.985 27.2495 108.831 26.6918 108.686L15.1675 105.704C14.5944 105.555 14.1642 105.494 13.8768 105.518C13.5739 105.539 13.34 105.677 13.1749 105.932C12.9983 106.167 12.8341 106.546 12.6823 107.069L12.2176 106.948C12.3814 106.379 12.5533 105.779 12.7331 105.148C12.8975 104.513 13.0676 103.888 13.2434 103.272C13.4038 102.653 13.5521 102.079 13.6884 101.553C13.8287 101.011 13.943 100.569 14.0312 100.228C14.2156 99.5159 14.424 98.7104 14.6565 97.812C14.8776 96.8941 15.0648 96.0749 15.2182 95.3543ZM22.1301 101.407C22.1301 101.407 22.2076 101.427 22.3625 101.467C22.5174 101.507 22.5948 101.527 22.5948 101.527L21.4944 105.779C21.4944 105.779 21.417 105.759 21.2621 105.719C21.1072 105.679 21.0297 105.659 21.0297 105.659L22.1301 101.407ZM19.2376 99.9397C20.1044 100.23 20.7702 100.435 21.2349 100.556C21.7036 100.661 22.1316 100.763 22.5188 100.863C22.9061 100.963 23.334 101.066 23.8027 101.171C24.2714 101.276 24.9553 101.411 25.8542 101.578L25.7159 102.112C25.2042 102.046 24.704 101.999 24.2152 101.972C23.715 101.925 23.2797 102.01 22.9092 102.229C22.5272 102.427 22.2481 102.867 22.0717 103.549L21.607 103.429C21.7393 102.917 21.7388 102.504 21.6056 102.189C21.4609 101.854 21.242 101.582 20.9487 101.374C20.6555 101.166 20.3445 100.995 20.0158 100.86C19.6716 100.721 19.3661 100.593 19.0993 100.474L19.2376 99.9397Z" fill="#B49359"/>
<path d="M18.5714 86.137L19.0208 86.3057C18.8447 86.8206 18.7585 87.2326 18.7622 87.5416C18.7565 87.83 18.8716 88.0697 19.1075 88.2607C19.3285 88.4462 19.7161 88.6429 20.2703 88.8509L31.4156 93.0328C31.9549 93.2352 32.3762 93.342 32.6796 93.3533C32.9829 93.3646 33.2273 93.2598 33.4128 93.0388C33.6038 92.8029 33.8099 92.4359 34.031 91.9378L34.4804 92.1064C34.3211 92.4397 34.1431 92.8686 33.9464 93.3929C33.7403 93.8966 33.5389 94.4106 33.3422 94.9349C33.123 95.5191 32.9253 96.0687 32.7492 96.5836C32.558 97.093 32.4185 97.5105 32.3304 97.8364L31.881 97.6677C32.0421 97.1472 32.1255 96.7427 32.1312 96.4543C32.1425 96.1509 32.0302 95.9037 31.7943 95.7127C31.5584 95.5216 31.1708 95.3249 30.6315 95.1225L19.4862 90.9406C18.932 90.7326 18.5106 90.6258 18.2222 90.6201C17.9189 90.6088 17.6717 90.7211 17.4806 90.957C17.2802 91.1724 17.0769 91.5319 16.8708 92.0356L16.4214 91.867C16.5545 91.558 16.724 91.1517 16.9301 90.648C17.1362 90.1442 17.3488 89.6003 17.5681 89.0161C17.7648 88.4918 17.9512 87.9721 18.1274 87.4572C18.3091 86.9273 18.4571 86.4872 18.5714 86.137Z" fill="#B49359"/>
<path d="M23.1567 75.3563C23.6392 74.417 24.1763 73.7216 24.768 73.27C25.3527 72.7969 25.9508 72.4206 26.562 72.141C26.9217 71.966 27.0599 71.7672 26.9764 71.5444C26.886 71.3002 26.5495 70.9924 25.9667 70.6211L26.2189 70.1301C26.7309 70.429 27.3604 70.7794 28.1074 71.181C28.8544 71.5827 29.847 72.1016 31.0852 72.7376L30.833 73.2286C30.1698 73.0139 29.6384 72.8578 29.2387 72.7605C28.8248 72.6558 28.4569 72.6017 28.1349 72.5982C27.8203 72.5805 27.4837 72.6054 27.1251 72.6731C26.315 72.8146 25.61 73.154 25.0103 73.6913C24.3963 74.2213 23.8992 74.8563 23.519 75.5964C23.1608 76.2938 23.0134 77.0185 23.0768 77.7706C23.1332 78.5011 23.3828 79.2408 23.8255 79.9899C24.2755 80.7246 24.9045 81.4435 25.7127 82.1464C26.5281 82.8351 27.5122 83.4755 28.665 84.0676C29.8605 84.6817 30.983 85.1054 32.0323 85.3386C33.0675 85.5645 34.0078 85.6248 34.8534 85.5195C35.7062 85.4 36.4462 85.1325 37.0732 84.7172C37.6934 84.2802 38.1789 83.7202 38.5298 83.0371C38.8588 82.3966 39.0743 81.6619 39.1763 80.8329C39.2784 80.004 39.1471 79.244 38.7825 78.5531C38.5306 78.028 38.1919 77.5842 37.7665 77.2218C37.3484 76.8452 36.7309 76.384 35.9139 75.8385L36.1661 75.3475C37.4612 76.0127 38.511 76.5429 39.3153 76.9381C40.1054 77.3259 40.7781 77.6445 41.3336 77.8939L41.0814 78.3849C40.4401 78.1275 40.0047 78.0297 39.775 78.0916C39.5527 78.1393 39.4607 78.3708 39.4991 78.7863C39.5987 79.503 39.6372 80.2333 39.6149 80.9772C39.5855 81.6997 39.3333 82.5234 38.8581 83.4485C38.1636 84.8006 37.2472 85.8318 36.1088 86.5422C34.9778 87.2383 33.6897 87.5749 32.2444 87.5521C30.8065 87.515 29.2763 87.0797 27.6538 86.2463C26.0598 85.4275 24.8149 84.4193 23.9192 83.2217C23.0234 82.0241 22.5006 80.7483 22.3507 79.3942C22.2081 78.0259 22.4768 76.6799 23.1567 75.3563Z" fill="#B49359"/>
<path d="M35.134 56.9831C35.5547 57.3582 35.9716 57.7109 36.3846 58.0414C36.8069 58.3588 37.1292 58.5959 37.3514 58.7527C37.5868 58.9187 37.8202 59.0735 38.0517 59.2172C38.2701 59.3517 38.4559 59.4631 38.6089 59.5515L38.2908 60.0026C37.464 59.5369 36.7776 59.2192 36.2316 59.0495C35.6726 58.8706 35.177 58.8931 34.745 59.117C34.3091 59.3186 33.8468 59.7659 33.358 60.4589L32.2099 62.0867C31.8963 62.5313 31.6958 62.8989 31.6082 63.1896C31.5168 63.458 31.5612 63.7144 31.7412 63.9588C31.9081 64.1941 32.2335 64.4823 32.7173 64.8235L42.4451 71.6845C42.9158 72.0165 43.2965 72.2263 43.5872 72.3138C43.8779 72.4014 44.1408 72.3617 44.376 72.1947C44.6074 72.0055 44.8799 71.6886 45.1934 71.244L46.2032 69.8123C46.7842 68.9886 47.1111 68.2891 47.1839 67.714C47.266 67.1257 47.1231 66.5649 46.7554 66.0314C46.3838 65.4756 45.7988 64.8476 45.0004 64.1475L45.3185 63.6964C45.6439 63.9846 46.1007 64.3362 46.6891 64.7512C46.9375 64.9264 47.3017 65.1734 47.7816 65.4924C48.2577 65.789 48.7626 66.0863 49.2964 66.3845C48.7999 67.0329 48.2566 67.7755 47.6664 68.6123C47.0631 69.4398 46.5309 70.1805 46.0698 70.8343C45.8669 71.1219 45.6041 71.4946 45.2813 71.9522C44.9678 72.3967 44.6331 72.8851 44.2773 73.4173C43.9084 73.9403 43.5415 74.4745 43.1765 75.0198C42.7984 75.5559 42.4453 76.0704 42.1171 76.5634L41.7249 76.2868C42.0123 75.8238 42.1951 75.4535 42.2735 75.1759C42.361 74.8852 42.3148 74.6176 42.1347 74.3732C41.9547 74.1287 41.6294 73.8405 41.1587 73.5085L31.4308 66.6474C30.947 66.3062 30.5663 66.0965 30.2887 66.0182C29.9981 65.9306 29.7305 65.9768 29.486 66.1569C29.2377 66.3146 28.9503 66.6111 28.6237 67.0464L28.2314 66.7698C28.5857 66.2952 28.9584 65.7945 29.3496 65.2677C29.7277 64.7316 30.1077 64.2067 30.4897 63.6929C30.8585 63.1699 31.1998 62.6861 31.5133 62.2416C31.8361 61.7839 32.0989 61.4113 32.3018 61.1236C32.726 60.5222 33.2055 59.8423 33.7404 59.0839C34.2714 58.3033 34.7359 57.603 35.134 56.9831ZM39.4623 65.0873C39.4623 65.0873 39.5276 65.1334 39.6584 65.2256C39.7891 65.3178 39.8545 65.3639 39.8545 65.3639L37.3231 68.9531C37.3231 68.9531 37.2577 68.9069 37.127 68.8147C36.9962 68.7225 36.9308 68.6764 36.9308 68.6764L39.4623 65.0873ZM37.2745 62.6926C37.9829 63.2705 38.5333 63.6978 38.9255 63.9745C39.327 64.2381 39.6912 64.4851 40.018 64.7157C40.3449 64.9462 40.7091 65.1933 41.1106 65.4569C41.512 65.7205 42.1038 66.0889 42.886 66.5623L42.5679 67.0134C42.1126 66.7706 41.6611 66.5501 41.2136 66.3519C40.7621 66.1314 40.3246 66.0577 39.9009 66.1309C39.4734 66.1818 39.0568 66.4949 38.651 67.0702L38.2588 66.7936C38.5631 66.3621 38.7087 65.9753 38.6955 65.6331C38.6784 65.2687 38.5695 64.9373 38.3687 64.6391C38.1679 64.3408 37.9375 64.0706 37.6775 63.8285C37.4044 63.5772 37.1641 63.3489 36.9564 63.1437L37.2745 62.6926Z" fill="#B49359"/>
<path d="M49.8024 53.9022C50.0901 53.6017 50.4488 53.4468 50.8786 53.4374C51.3085 53.428 51.6736 53.5672 51.9741 53.8548C52.2746 54.1425 52.4295 54.5013 52.4389 54.9311C52.4483 55.3609 52.3091 55.7261 52.0215 56.0266C51.7338 56.3271 51.375 56.482 50.9452 56.4914C50.5154 56.5007 50.1502 56.3616 49.8497 56.0739C49.5492 55.7862 49.3943 55.4275 49.3849 54.9977C49.3756 54.5679 49.5147 54.2027 49.8024 53.9022Z" fill="#B49359"/>
<path d="M56.0816 35.9583L56.3861 36.3294C55.9757 36.6869 55.6948 37.0002 55.5432 37.2695C55.3938 37.5163 55.3734 37.7814 55.4819 38.065C55.5803 38.3361 55.8172 38.7005 56.1928 39.1581L63.7447 48.36C64.1101 48.8052 64.4213 49.1087 64.6782 49.2704C64.9351 49.4322 65.1991 49.4639 65.4703 49.3655C65.7538 49.257 66.116 49.0426 66.5568 48.7222L66.8613 49.0932C66.5565 49.302 66.1877 49.584 65.7548 49.9392C65.3242 50.272 64.8924 50.616 64.4595 50.9712C63.9772 51.3671 63.5308 51.7438 63.1204 52.1013C62.6999 52.4464 62.37 52.7379 62.1305 52.9758L61.826 52.6047C62.2262 52.2349 62.501 51.9266 62.6504 51.6798C62.8121 51.4229 62.8387 51.1527 62.7302 50.8691C62.6217 50.5856 62.3847 50.2212 62.0193 49.776L54.4674 40.5741C54.0919 40.1165 53.7807 39.813 53.5339 39.6637C53.277 39.5019 53.0068 39.4753 52.7233 39.5838C52.442 39.6698 52.086 39.8792 51.6553 40.2119L51.3508 39.8409C51.6207 39.6401 51.971 39.3733 52.4016 39.0406C52.8323 38.7078 53.2888 38.3435 53.7711 37.9476C54.204 37.5924 54.6257 37.236 55.036 36.8785C55.4587 36.5109 55.8073 36.2042 56.0816 35.9583Z" fill="#B49359"/>
<path d="M65.8931 28.6026C66.782 28.0325 67.5956 27.7007 68.334 27.6072C69.0772 27.4916 69.7834 27.4664 70.4524 27.5315C70.8513 27.5607 71.0706 27.4581 71.1103 27.2236C71.1548 26.9669 71.0182 26.5318 70.7006 25.9181L71.1653 25.6201C71.4579 26.1357 71.8265 26.7547 72.2709 27.4771C72.7152 28.1995 73.3132 29.1465 74.0648 30.3182L73.6001 30.6163C73.1344 30.0976 72.7531 29.6959 72.4564 29.411C72.151 29.1127 71.8599 28.8812 71.5832 28.7165C71.32 28.5432 71.0163 28.3958 70.6723 28.2743C69.9006 27.99 69.1205 27.9296 68.3321 28.0932C67.535 28.2433 66.7863 28.543 66.0859 28.9922C65.426 29.4155 64.9347 29.9682 64.612 30.6505C64.2941 31.3106 64.1385 32.0757 64.1453 32.9457C64.1656 33.8071 64.3488 34.7446 64.6948 35.7582C65.0543 36.7632 65.5839 37.8111 66.2836 38.9019C67.0093 40.0332 67.7673 40.9631 68.5578 41.6917C69.3396 42.4067 70.1225 42.931 70.9067 43.2644C71.7043 43.5892 72.4785 43.7293 73.2293 43.6849C73.985 43.6184 74.6861 43.3778 75.3325 42.9631C75.9386 42.5744 76.4938 42.0472 76.9982 41.3815C77.5026 40.7158 77.7706 39.9926 77.8022 39.2121C77.8479 38.6314 77.7778 38.0776 77.5919 37.5506C77.4194 37.015 77.1168 36.3062 76.6841 35.4242L77.1487 35.1261C77.9348 36.3517 78.5765 37.3372 79.0737 38.0828C79.5623 38.8149 79.9842 39.4281 80.3394 39.9226L79.8748 40.2207C79.4494 39.6761 79.1219 39.373 78.8922 39.3112C78.676 39.2408 78.4802 39.3949 78.3049 39.7735C78.0312 40.4433 77.6979 41.0943 77.305 41.7264C76.917 42.3365 76.2853 42.9223 75.4099 43.4838C74.1305 44.3045 72.8202 44.7362 71.4791 44.7791C70.1514 44.8133 68.8684 44.4578 67.6299 43.7124C66.405 42.9585 65.3001 41.8138 64.3153 40.2785C63.3478 38.7702 62.7773 37.2733 62.6038 35.7878C62.4304 34.3023 62.6187 32.9365 63.1689 31.6901C63.7326 30.4352 64.6406 29.406 65.8931 28.6026Z" fill="#B49359"/>
<path d="M85.5482 18.7053C85.7234 19.241 85.9066 19.7555 86.0976 20.2487C86.3031 20.7354 86.4626 21.1023 86.576 21.3495C86.696 21.6113 86.82 21.8625 86.9479 22.1031C87.0692 22.3291 87.1738 22.5188 87.2617 22.6721L86.7599 22.9022C86.2792 22.0841 85.8454 21.4645 85.4587 21.0434C85.0653 20.6077 84.6255 20.3781 84.1395 20.3546C83.6613 20.3098 83.0368 20.4642 82.266 20.8177L80.4553 21.6481C79.9608 21.8748 79.6027 22.0919 79.3809 22.2992C79.167 22.4853 79.0765 22.7292 79.1093 23.031C79.1354 23.3183 79.2718 23.731 79.5186 24.2691L84.4807 35.0896C84.7208 35.6131 84.9445 35.9858 85.1518 36.2076C85.3591 36.4293 85.6064 36.5272 85.8937 36.501C86.1888 36.4537 86.5836 36.3167 87.0781 36.0899L88.6706 35.3596C89.5869 34.9394 90.221 34.499 90.573 34.0383C90.9396 33.571 91.098 33.0143 91.0481 32.3683C91.0062 31.701 90.816 30.8641 90.4776 29.8576L90.9794 29.6275C91.1158 30.0401 91.3341 30.5737 91.6342 31.2282C91.761 31.5045 91.9516 31.9011 92.2063 32.418C92.4688 32.9137 92.7559 33.4246 93.0675 33.9505C92.3124 34.2616 91.4695 34.6306 90.5387 35.0574C89.6012 35.4697 88.7689 35.8426 88.0417 36.1761C87.7218 36.3228 87.3073 36.5129 86.7983 36.7463C86.3038 36.9731 85.769 37.2271 85.1939 37.5084C84.6122 37.7752 84.0265 38.0526 83.4369 38.3406C82.8406 38.614 82.2767 38.8814 81.7453 39.1427L81.5452 38.7064C82.0263 38.4506 82.3705 38.2223 82.5777 38.0217C82.7995 37.8144 82.894 37.5598 82.8612 37.258C82.8284 36.9562 82.692 36.5435 82.4519 36.02L77.4898 25.1995C77.243 24.6614 77.0193 24.2887 76.8186 24.0815C76.6113 23.8597 76.3568 23.7652 76.055 23.798C75.761 23.8096 75.3635 23.9215 74.8623 24.1337L74.6623 23.6974C75.207 23.4651 75.7809 23.2196 76.3839 22.9607C76.9802 22.6872 77.5725 22.4244 78.1609 22.1721C78.7427 21.9054 79.2808 21.6586 79.7753 21.4318C80.2843 21.1984 80.6988 21.0083 81.0188 20.8616C81.6878 20.5548 82.444 20.208 83.2876 19.8212C84.139 19.4131 84.8925 19.0411 85.5482 18.7053ZM85.2174 27.8869C85.2174 27.8869 85.2507 27.9596 85.3174 28.105C85.3841 28.2505 85.4175 28.3232 85.4175 28.3232L81.4252 30.154C81.4252 30.154 81.3919 30.0813 81.3252 29.9358C81.2585 29.7904 81.2251 29.7177 81.2251 29.7177L85.2174 27.8869ZM84.5295 24.7171C84.8514 25.5728 85.1125 26.2188 85.3126 26.6551C85.5272 27.0847 85.7179 27.4813 85.8846 27.8449C86.0514 28.2085 86.242 28.6051 86.4567 29.0348C86.6713 29.4644 86.9978 30.0804 87.4361 30.8827L86.9344 31.1128C86.6628 30.6741 86.3833 30.2566 86.0959 29.8603C85.8165 29.4428 85.4752 29.1592 85.0722 29.0096C84.677 28.8388 84.1594 28.9001 83.5195 29.1936L83.3194 28.7573C83.7994 28.5372 84.1196 28.2759 84.2801 27.9734C84.4486 27.6498 84.5209 27.3086 84.4972 26.9498C84.4735 26.591 84.4101 26.2416 84.307 25.9017C84.1972 25.5472 84.1041 25.229 84.0277 24.9472L84.5295 24.7171Z" fill="#B49359"/>
<path d="M102.363 13.0723C103.389 12.8233 104.266 12.7751 104.995 12.9276C105.735 13.0608 106.411 13.2673 107.022 13.547C107.389 13.7048 107.63 13.6793 107.744 13.4705C107.87 13.2425 107.883 12.7866 107.783 12.1029L108.319 11.9727C108.428 12.5556 108.574 13.2609 108.759 14.0888C108.943 14.9166 109.199 16.0069 109.528 17.3597L108.991 17.4899C108.72 16.8477 108.491 16.3435 108.303 15.9775C108.112 15.5958 107.912 15.282 107.704 15.0361C107.512 14.7864 107.273 14.548 106.987 14.321C106.351 13.8004 105.633 13.4889 104.834 13.3863C104.032 13.2682 103.226 13.3073 102.418 13.5035C101.656 13.6883 101.011 14.0506 100.483 14.5902C99.9676 15.1106 99.571 15.783 99.2937 16.6077C99.0318 17.4286 98.8992 18.3745 98.8956 19.4456C98.9076 20.5128 99.0664 21.6762 99.372 22.9357C99.689 24.2418 100.102 25.3681 100.612 26.3146C101.118 27.2456 101.687 27.9966 102.319 28.5675C102.967 29.1347 103.653 29.5198 104.378 29.7227C105.114 29.9063 105.855 29.9076 106.601 29.7265C107.301 29.5567 107.998 29.2394 108.692 28.7747C109.386 28.3099 109.875 27.7138 110.159 26.9862C110.392 26.4523 110.506 25.9059 110.503 25.347C110.514 24.7844 110.459 24.0157 110.338 23.0408L110.874 22.9106C111.218 24.3256 111.503 25.4665 111.73 26.3335C111.953 27.1849 112.152 27.9022 112.326 28.4855L111.79 28.6157C111.565 27.9622 111.354 27.5688 111.157 27.4355C110.976 27.2984 110.741 27.3802 110.451 27.6809C109.974 28.2248 109.447 28.7314 108.869 29.2009C108.303 29.651 107.515 29.9986 106.504 30.2439C105.027 30.6023 103.648 30.583 102.366 30.1861C101.1 29.7854 100.003 29.0307 99.0755 27.9222C98.1635 26.8099 97.4925 25.3675 97.0624 23.5949C96.6398 21.8534 96.5888 20.2523 96.9094 18.7915C97.23 17.3307 97.8536 16.101 98.7802 15.1023C99.7224 14.0999 100.917 13.4232 102.363 13.0723Z" fill="#B49359"/>
<path d="M112.429 11.2035C112.765 11.1883 113.205 11.1636 113.748 11.1293C114.291 11.0949 114.826 11.0533 115.351 11.0045C116.1 10.9351 116.816 10.8605 117.5 10.781C118.183 10.7015 118.669 10.6484 118.955 10.6218C120.246 10.5021 121.33 10.5862 122.209 10.8743C123.103 11.1608 123.787 11.6035 124.26 12.2023C124.748 12.7837 125.028 13.4648 125.101 14.2454C125.145 14.7234 125.097 15.242 124.956 15.8015C124.815 16.3609 124.528 16.9017 124.094 17.424C123.676 17.9449 123.076 18.4023 122.293 18.7964C121.509 19.1745 120.495 19.4212 119.252 19.5365L116.958 19.7495L116.914 19.2715L118.969 19.0808C120.1 18.9758 120.944 18.7207 121.501 18.3155C122.073 17.8929 122.435 17.3772 122.587 16.7685C122.754 16.1424 122.803 15.4629 122.735 14.7301C122.618 13.4715 122.225 12.5278 121.556 11.8989C120.902 11.2526 119.85 10.9968 118.4 11.1313C117.667 11.1994 117.202 11.3791 117.004 11.6707C116.806 11.9622 116.745 12.5222 116.822 13.3506L117.923 25.2037C117.976 25.7772 118.063 26.2029 118.186 26.4808C118.308 26.7587 118.509 26.9329 118.789 27.0034C119.084 27.0723 119.504 27.0976 120.049 27.0792L120.093 27.5571C119.724 27.5593 119.26 27.5862 118.703 27.638C118.16 27.6723 117.609 27.7154 117.052 27.7671C116.43 27.8248 115.85 27.8867 115.309 27.953C114.768 28.0032 114.331 28.0598 113.999 28.1227L113.955 27.6448C114.494 27.5627 114.894 27.4612 115.156 27.3405C115.434 27.2183 115.607 27.0094 115.676 26.7137C115.745 26.4181 115.753 25.9835 115.7 25.41L114.6 13.5569C114.545 12.9674 114.458 12.5417 114.337 12.2798C114.215 12.0019 114.006 11.8284 113.71 11.7595C113.429 11.6731 113.017 11.6471 112.474 11.6814L112.429 11.2035ZM117.016 19.3343C117.879 19.2863 118.56 19.2633 119.059 19.2653C119.555 19.2513 119.957 19.2462 120.262 19.25C120.584 19.2523 120.89 19.264 121.181 19.2852C122.265 19.3613 123.06 19.617 123.567 20.052C124.087 20.4697 124.505 21.162 124.82 22.1291L125.644 24.5112C125.868 25.1974 126.075 25.6924 126.263 25.9962C126.467 26.2827 126.743 26.4016 127.092 26.3532C127.361 26.3121 127.576 26.2038 127.737 26.0282C127.913 25.8512 128.092 25.6176 128.274 25.3275L128.657 25.5571C128.368 26.0821 128.053 26.497 127.712 26.8018C127.385 27.0892 126.895 27.2633 126.242 27.3239C125.653 27.3786 125.119 27.2514 124.64 26.9423C124.161 26.6332 123.763 25.9792 123.446 24.9803L122.698 22.6394C122.491 21.9676 122.269 21.3937 122.032 20.9176C121.809 20.424 121.518 20.0494 121.156 19.7937C120.811 19.5365 120.32 19.4375 119.683 19.4966L117.102 19.7361L117.016 19.3343Z" fill="#B49359"/>
<path d="M136.673 10.0172L141.764 25.3878C141.974 26.0071 142.225 26.4282 142.518 26.6512C142.812 26.8582 143.086 26.9761 143.341 27.0049L143.317 27.4843C142.999 27.4363 142.608 27.4007 142.145 27.3774C141.682 27.3382 141.219 27.3069 140.756 27.2836C140.133 27.2523 139.549 27.231 139.005 27.2198C138.462 27.1925 138.021 27.1864 137.684 27.2015L137.708 26.7221C138.525 26.7311 139.051 26.6213 139.287 26.3928C139.523 26.1484 139.502 25.6107 139.224 24.7796L135.363 12.6428L135.763 12.3505L131.048 22.9754C130.76 23.6018 130.581 24.1375 130.511 24.5825C130.441 25.0115 130.464 25.3571 130.579 25.6192C130.71 25.8821 130.932 26.0775 131.246 26.2054C131.576 26.3341 131.988 26.4189 132.483 26.4598L132.459 26.9391C132.013 26.8847 131.542 26.8451 131.047 26.8202C130.568 26.7802 130.121 26.7497 129.706 26.7288C129.306 26.7088 128.962 26.6995 128.674 26.7011C128.402 26.6874 128.146 26.6906 127.905 26.7105L127.929 26.2311C128.252 26.1672 128.589 25.9999 128.939 25.7291C129.29 25.4424 129.619 24.9463 129.927 24.2408L136.289 9.9979C136.353 10.0011 136.417 10.0043 136.481 10.0075C136.545 10.0107 136.609 10.0139 136.673 10.0172ZM139.086 20.3511L139.061 20.8305L131.918 20.4719L132.182 20.0046L139.086 20.3511Z" fill="#B49359"/>
<path d="M158.473 13.0045C158.301 13.5911 158.147 14.1648 158.012 14.7257C157.896 15.2737 157.81 15.6972 157.756 15.9962C157.687 16.374 157.63 16.7295 157.585 17.0629C157.54 17.3963 157.503 17.6904 157.472 17.9451L156.929 17.8458C157.021 16.7239 157.029 15.8309 156.956 15.1668C156.885 14.487 156.639 13.9623 156.219 13.5926C155.798 13.223 155.092 12.9476 154.101 12.7663L152.614 12.4944C152.078 12.3965 151.661 12.3689 151.36 12.4116C151.078 12.4413 150.864 12.5893 150.718 12.8553C150.574 13.1056 150.449 13.5219 150.343 14.1043L148.202 25.8142C148.099 26.3808 148.076 26.8158 148.134 27.1193C148.208 27.4256 148.41 27.6576 148.739 27.8154C149.068 27.9731 149.56 28.1281 150.215 28.2805L150.129 28.7526C149.726 28.6463 149.209 28.5357 148.58 28.4206C147.953 28.2897 147.317 28.1653 146.672 28.0473C146.058 27.9351 145.482 27.838 144.944 27.7559C144.409 27.658 143.973 27.5946 143.637 27.5657L143.723 27.0935C144.264 27.1599 144.677 27.1703 144.962 27.1248C145.262 27.0821 145.486 26.9278 145.632 26.6617C145.778 26.3957 145.903 25.9794 146.007 25.4128L148.147 13.7029C148.254 13.1205 148.284 12.6869 148.239 12.4021C148.196 12.1015 148.042 11.8781 147.776 11.7319C147.528 11.5728 147.139 11.4365 146.606 11.3229L146.693 10.8507C147.272 10.9729 147.883 11.1009 148.525 11.2346C149.171 11.3526 149.807 11.477 150.433 11.6078C151.063 11.7229 151.645 11.8294 152.18 11.9272C152.731 12.0279 153.18 12.1099 153.526 12.1733C154.25 12.3056 155.069 12.4552 155.981 12.6221C156.913 12.7762 157.744 12.9036 158.473 13.0045ZM153.295 20.6458C153.295 20.6458 153.28 20.7245 153.252 20.8819C153.223 21.0392 153.208 21.1179 153.208 21.1179L148.487 20.2547C148.487 20.2547 148.501 20.176 148.53 20.0186C148.559 19.8612 148.573 19.7825 148.573 19.7825L153.295 20.6458ZM154.313 17.6114C154.086 18.497 153.929 19.1759 153.843 19.6481C153.772 20.1232 153.701 20.5574 153.629 20.9509C153.557 21.3444 153.486 21.7787 153.415 22.2537C153.345 22.7288 153.259 23.4206 153.158 24.3292L152.615 24.23C152.644 23.7148 152.655 23.2125 152.647 22.7231C152.657 22.2208 152.54 21.7928 152.296 21.439C152.07 21.0725 151.611 20.8259 150.918 20.6993L151.005 20.2271C151.524 20.322 151.936 20.2917 152.241 20.136C152.565 19.9674 152.82 19.7294 153.006 19.4219C153.192 19.1144 153.341 18.7918 153.451 18.4542C153.565 18.1008 153.671 17.7868 153.77 17.5122L154.313 17.6114Z" fill="#B49359"/>
<path d="M174.171 17.7485C173.924 18.308 173.698 18.8572 173.492 19.3959C173.306 19.9244 173.166 20.3333 173.073 20.6228C172.956 20.9885 172.854 21.3338 172.767 21.6586C172.679 21.9835 172.604 22.2703 172.541 22.519L172.016 22.3505C172.251 21.2498 172.375 20.3653 172.387 19.6973C172.404 19.014 172.228 18.462 171.859 18.0413C171.49 17.6205 170.825 17.2564 169.865 16.9489L168.631 16.5535L164.465 29.5584C164.269 30.1678 164.176 30.642 164.185 30.981C164.21 31.3247 164.372 31.6037 164.673 31.8177C164.974 32.0318 165.44 32.2566 166.07 32.4921L165.924 32.9492C165.537 32.7918 165.039 32.6155 164.43 32.4202C163.825 32.2097 163.211 32.0044 162.586 31.8042C161.9 31.5845 161.25 31.3847 160.636 31.2047C160.042 31.0143 159.557 30.8758 159.181 30.7891L159.328 30.332C159.977 30.5065 160.487 30.5942 160.856 30.5949C161.226 30.5956 161.513 30.4607 161.717 30.1901C161.936 29.9244 162.144 29.4869 162.339 28.8774L166.506 15.8725L165.271 15.4771C164.327 15.1744 163.574 15.0846 163.014 15.2075C162.469 15.3353 162.005 15.6823 161.622 16.2484C161.244 16.7993 160.831 17.591 160.382 18.6234L159.857 18.455C159.965 18.221 160.071 17.944 160.173 17.624C160.291 17.3089 160.408 16.9685 160.526 16.6028C160.618 16.3133 160.735 15.897 160.875 15.354C161.036 14.8006 161.178 14.2246 161.303 13.626C161.938 13.8463 162.626 14.0837 163.368 14.3381C164.125 14.5974 164.884 14.8491 165.646 15.0932C166.408 15.3373 167.101 15.5594 167.726 15.7595C168.351 15.9597 169.037 16.1793 169.783 16.4185C170.545 16.6626 171.309 16.8991 172.076 17.1279C172.843 17.3568 173.541 17.5636 174.171 17.7485Z" fill="#B49359"/>
<path d="M189.734 24.8116C190.659 25.3217 191.338 25.8791 191.772 26.4839C192.228 27.0824 192.586 27.6913 192.848 28.3106C193.012 28.6753 193.206 28.8192 193.432 28.7424C193.678 28.6593 193.996 28.332 194.384 27.7605L194.868 28.0271C194.554 28.53 194.185 29.1489 193.761 29.8837C193.338 30.6184 192.79 31.5953 192.117 32.8141L191.634 32.5475C191.868 31.891 192.04 31.3644 192.149 30.9678C192.266 30.5572 192.331 30.191 192.344 29.8693C192.371 29.5553 192.356 29.2181 192.299 28.8577C192.182 28.0437 191.863 27.329 191.344 26.7136C190.832 26.0842 190.212 25.5686 189.484 25.1667C188.797 24.788 188.077 24.6192 187.324 24.6604C186.592 24.6952 185.845 24.9228 185.083 25.3431C184.335 25.7712 183.598 26.3787 182.872 27.1657C182.159 27.9604 181.49 28.9251 180.864 30.0599C180.215 31.2368 179.758 32.3462 179.494 33.3882C179.237 34.4162 179.149 35.3543 179.23 36.2026C179.324 37.0586 179.569 37.8062 179.966 38.4452C180.384 39.0781 180.93 39.5799 181.602 39.9509C182.233 40.2987 182.961 40.5358 183.786 40.6623C184.612 40.7888 185.375 40.6801 186.077 40.3361C186.609 40.0998 187.063 39.7744 187.438 39.3599C187.826 38.9531 188.306 38.3495 188.875 37.549L189.358 37.8156C188.655 39.0905 188.094 40.1241 187.675 40.9164C187.264 41.6946 186.926 42.3577 186.66 42.9055L186.177 42.6389C186.453 42.0056 186.564 41.5732 186.509 41.3418C186.468 41.1181 186.239 41.0194 185.823 41.0455C185.103 41.1238 184.372 41.1408 183.629 41.0964C182.908 41.0457 182.092 40.7692 181.181 40.2668C179.85 39.5327 178.847 38.5861 178.17 37.4273C177.508 36.2762 177.21 34.9786 177.275 33.5347C177.355 32.0985 177.835 30.5819 178.716 28.9848C179.582 27.4157 180.626 26.2011 181.85 25.3412C183.073 24.4812 184.364 23.9963 185.722 23.8866C187.094 23.7846 188.431 24.0929 189.734 24.8116Z" fill="#B49359"/>
<path d="M205 34.8445C206.203 35.7741 207.043 36.8585 207.521 38.0976C208.012 39.3465 208.108 40.6744 207.809 42.0814C207.532 43.4855 206.831 44.9155 205.706 46.3712C204.61 47.789 203.391 48.8289 202.05 49.491C200.722 50.1629 199.372 50.4441 198.001 50.3345C196.629 50.2249 195.355 49.715 194.178 48.805C192.975 47.8753 192.129 46.7861 191.638 45.5372C191.16 44.2981 191.064 42.9701 191.351 41.5533C191.65 40.1464 192.357 38.7213 193.472 37.2782C194.568 35.8605 195.787 34.8205 197.128 34.1584C198.469 33.4963 199.819 33.2152 201.177 33.315C202.549 33.4246 203.823 33.9344 205 34.8445ZM204.66 35.1276C203.837 34.4915 202.902 34.2234 201.854 34.3234C200.806 34.4233 199.725 34.8412 198.61 35.577C197.508 36.3226 196.448 37.3536 195.43 38.6701C194.393 40.0119 193.671 41.3248 193.265 42.6086C192.881 43.8895 192.796 45.0468 193.008 46.0804C193.243 47.1111 193.746 47.925 194.518 48.5219C195.341 49.158 196.276 49.426 197.324 49.3261C198.372 49.2262 199.447 48.8034 200.549 48.0578C201.674 47.3093 202.74 46.2832 203.748 44.9793C204.795 43.6248 205.511 42.3071 205.894 41.0262C206.29 39.755 206.378 38.609 206.156 37.588C205.943 36.5544 205.445 35.7343 204.66 35.1276Z" fill="#B49359"/>
<path d="M226.566 56.2002L226.213 56.5245C225.833 56.1343 225.505 55.8708 225.228 55.7341C224.973 55.5985 224.707 55.5925 224.43 55.7163C224.165 55.8293 223.814 56.0858 223.377 56.4858L214.601 64.5282C214.176 64.9174 213.89 65.2446 213.743 65.51C213.595 65.7753 213.578 66.0407 213.691 66.3061C213.815 66.5833 214.049 66.9332 214.393 67.3559L214.039 67.6802C213.814 67.3873 213.512 67.0344 213.134 66.6215C212.778 66.2097 212.411 65.7973 212.033 65.3844C211.611 64.9244 211.211 64.4992 210.831 64.109C210.464 63.7079 210.155 63.3943 209.904 63.1682L210.258 62.8439C210.649 63.2234 210.972 63.4809 211.227 63.6166C211.492 63.7641 211.763 63.7759 212.04 63.6521C212.318 63.5283 212.669 63.2718 213.093 62.8827L222.825 53.9646L222.837 54.084L207.221 60.4182L206.962 60.1351L214.359 45.1528L205.017 53.7142C204.592 54.1033 204.288 54.4468 204.106 54.7446C203.945 55.0434 203.915 55.3534 204.014 55.6749C204.136 55.9973 204.396 56.3993 204.794 56.881L204.44 57.2053C204.269 56.9713 204.027 56.6833 203.713 56.3412C203.411 55.9883 203.12 55.6585 202.839 55.3518C202.569 55.0569 202.287 54.7615 201.994 54.4656C201.724 54.1707 201.485 53.9338 201.278 53.7549L201.632 53.4306C202.023 53.81 202.358 54.0568 202.636 54.1709C202.937 54.2859 203.237 54.2707 203.538 54.1253C203.851 53.9691 204.219 53.6964 204.644 53.3072L213.243 45.4269C213.68 45.0269 213.966 44.6997 214.101 44.4451C214.249 44.1798 214.261 43.9085 214.137 43.6313C214.036 43.3551 213.807 43.0111 213.452 42.5992L213.805 42.2749C213.977 42.4862 214.193 42.7448 214.451 43.0505C214.72 43.368 214.99 43.6742 215.26 43.9691C215.498 44.2286 215.747 44.4886 216.008 44.7491C216.279 45.0214 216.507 45.2465 216.692 45.4245L209.791 59.1374L209.374 58.9663L223.692 53.1701C223.822 53.3116 223.946 53.4473 224.065 53.5771C224.195 53.7186 224.324 53.8602 224.454 54.0017C224.832 54.4146 225.211 54.8161 225.591 55.2064C225.981 55.6085 226.306 55.9397 226.566 56.2002Z" fill="#B49359"/>
<path d="M227.979 58.3757C228.154 58.6634 228.386 59.0374 228.677 59.4976C228.967 59.9579 229.26 60.407 229.554 60.8451C229.974 61.469 230.383 62.0619 230.78 62.6237C231.178 63.1856 231.457 63.586 231.617 63.8249C232.698 65.4311 233.142 66.8781 232.948 68.1659C232.753 69.4536 232.079 70.4861 230.924 71.2632C230.446 71.5848 229.888 71.8446 229.25 72.0426C228.625 72.2317 227.953 72.2789 227.234 72.1844C226.537 72.0942 225.821 71.8044 225.087 71.315C224.352 70.8256 223.637 70.0632 222.94 69.0278L221.654 67.1163L222.052 66.8483L223.204 68.5607C223.838 69.5032 224.5 70.0994 225.189 70.3494C225.887 70.6126 226.586 70.634 227.286 70.4136C227.995 70.2064 228.688 69.875 229.365 69.4194C230.626 68.5708 231.399 67.6844 231.683 66.7601C231.977 65.8492 231.717 64.7897 230.904 63.5817C230.493 62.9711 230.112 62.6488 229.762 62.6148C229.411 62.5808 228.891 62.7961 228.2 63.2606L218.324 69.9064C217.846 70.228 217.519 70.5157 217.343 70.7694C217.175 71.0363 217.15 71.3427 217.267 71.6883C217.384 72.0339 217.616 72.4944 217.965 73.0698L217.567 73.3378C217.361 72.9748 217.08 72.5278 216.722 71.9968C216.378 71.4569 216.023 70.9149 215.657 70.3706C215.309 69.8529 214.976 69.3729 214.659 68.9305C214.355 68.4791 214.096 68.123 213.882 67.8621L214.28 67.5941C214.611 68.0276 214.892 68.3304 215.123 68.5024C215.363 68.6878 215.63 68.7399 215.922 68.6587C216.215 68.5776 216.6 68.3762 217.078 68.0547L226.954 61.4088C227.445 61.0783 227.777 60.7973 227.949 60.5658C228.134 60.3254 228.186 60.0589 228.105 59.7663C228.046 59.4781 227.872 59.1039 227.581 58.6437L227.979 58.3757Z" fill="#B49359"/>
<path d="M239.433 76.9936L228.502 88.9394C228.064 89.4242 227.819 89.849 227.767 90.2137C227.73 90.5714 227.761 90.8684 227.86 91.105L227.43 91.3179C227.317 91.017 227.157 90.6586 226.952 90.2427C226.76 89.8198 226.561 89.4004 226.355 88.9846C226.079 88.4254 225.812 87.9055 225.557 87.4251C225.315 86.9376 225.106 86.5504 224.928 86.2634L225.358 86.0505C225.749 86.7676 226.101 87.1732 226.416 87.2675C226.745 87.3547 227.204 87.0738 227.793 86.425L236.502 77.1323L236.952 77.338L225.378 78.4085C224.69 78.463 224.135 78.5682 223.713 78.7239C223.304 78.8726 223.014 79.061 222.841 79.2893C222.676 79.532 222.614 79.8215 222.655 80.158C222.704 80.5088 222.831 80.91 223.037 81.3616L222.607 81.5746C222.437 81.1589 222.241 80.7288 222.021 80.2843C221.823 79.847 221.631 79.442 221.447 79.0691C221.269 78.7107 221.109 78.4059 220.967 78.1549C220.847 77.9112 220.719 77.6888 220.583 77.4879L221.014 77.275C221.227 77.5263 221.538 77.7386 221.945 77.9119C222.366 78.0782 222.96 78.1234 223.726 78.0478L239.263 76.6495C239.291 76.7069 239.319 76.7642 239.348 76.8216C239.376 76.8789 239.405 76.9363 239.433 76.9936ZM231.591 84.1431L231.161 84.3561L227.988 77.9466L228.524 77.9487L231.591 84.1431Z" fill="#B49359"/>
<path d="M248.42 100.75L247.963 100.898C247.78 100.386 247.575 100.015 247.349 99.7852C247.128 99.5709 246.851 99.4675 246.517 99.475C246.183 99.4824 245.734 99.5776 245.171 99.7603L231.543 104.183C231.513 104.092 231.484 104.001 231.454 103.909C231.43 103.833 231.402 103.749 231.373 103.658L243.076 89.2623L231.023 93.174C230.475 93.3518 230.057 93.5382 229.767 93.7333C229.497 93.9386 229.34 94.208 229.297 94.5417C229.274 94.8855 229.344 95.3592 229.506 95.9626L229.049 96.1108C228.991 95.8269 228.89 95.4644 228.747 95.023C228.619 94.5767 228.491 94.1558 228.362 93.7601C228.239 93.3796 228.105 92.994 227.962 92.6033C227.838 92.2228 227.719 91.9082 227.605 91.6593L228.061 91.5111C228.26 92.0187 228.462 92.3821 228.667 92.6013C228.893 92.8308 229.173 92.9418 229.507 92.9343C229.856 92.9219 230.305 92.8268 230.853 92.649L241.947 89.0484C242.51 88.8657 242.906 88.6867 243.136 88.5114C243.38 88.3312 243.503 88.0893 243.506 87.7857C243.528 87.4924 243.463 87.0846 243.31 86.5622L243.767 86.414C243.836 86.6777 243.924 87.0022 244.032 87.3876C244.146 87.7883 244.264 88.1788 244.387 88.5593C244.496 88.8941 244.607 89.2112 244.721 89.5106C244.835 89.8101 244.94 90.0791 245.034 90.3176L235.231 102.406L245.001 99.2353C245.564 99.0525 245.981 98.8585 246.25 98.6532C246.525 98.4631 246.682 98.1936 246.72 97.8448C246.763 97.5112 246.696 97.0452 246.518 96.4467L246.975 96.2985C247.049 96.5774 247.149 96.94 247.277 97.3863C247.41 97.8477 247.539 98.2687 247.662 98.6492C247.79 99.0449 247.924 99.4305 248.063 99.806C248.206 100.197 248.325 100.511 248.42 100.75Z" fill="#B49359"/>
<path d="M251.341 116.515L250.869 116.6C250.752 116.312 250.502 116.048 250.117 115.807C249.749 115.565 249.186 115.324 248.428 115.086L238.124 112.004L238.053 111.602L247.27 104.248C247.796 103.829 248.11 103.497 248.213 103.251C248.334 103.018 248.379 102.815 248.348 102.641L248.844 102.553C248.884 102.87 248.926 103.196 248.97 103.53C249.016 103.879 249.074 104.251 249.145 104.644C249.238 105.164 249.336 105.715 249.441 106.298C249.563 106.894 249.686 107.441 249.807 107.939L249.311 108.028C249.241 107.634 249.131 107.296 248.983 107.014C248.835 106.731 248.627 106.566 248.358 106.516C248.089 106.467 247.747 106.601 247.333 106.919L240.393 112.281L240.217 112.117L247.04 114.139C247.985 114.425 248.692 114.518 249.162 114.418C249.634 114.334 249.925 114.095 250.033 113.701C250.158 113.305 250.168 112.775 250.066 112.111L250.538 112.026C250.604 112.486 250.672 112.953 250.74 113.429C250.809 113.904 250.88 114.346 250.953 114.756C251.027 115.165 251.095 115.503 251.159 115.768C251.222 116.032 251.283 116.282 251.341 116.515ZM240.795 112.623L236.117 113.46C235.55 113.561 235.134 113.685 234.867 113.83C234.6 113.975 234.444 114.19 234.397 114.475C234.353 114.775 234.364 115.196 234.428 115.737L233.955 115.821C233.922 115.454 233.856 114.994 233.758 114.443C233.678 113.904 233.588 113.36 233.49 112.808C233.38 112.194 233.269 111.621 233.157 111.088C233.062 110.553 232.968 110.122 232.878 109.797L233.35 109.713C233.478 110.242 233.612 110.633 233.755 110.884C233.9 111.15 234.123 111.305 234.423 111.349C234.724 111.393 235.157 111.364 235.724 111.263L240.568 110.396L239.331 111.934L240.795 112.623Z" fill="#B49359"/>
</svg>
